<svg xmlns="http://www.w3.org/2000/svg" xmlns:xlink="http://www.w3.org/1999/xlink" id="Layer_1" x="0px" y="0px" viewBox="0 0 1080 1080" style="enable-background:new 0 0 1080 1080;" xml:space="preserve"><style type="text/css">	.st0{fill:#2F388D;}	.st1{fill:#FFFFFF;}	.st2{fill-rule:evenodd;clip-rule:evenodd;fill:#FFFFFF;}	.st3{fill:#FCD107;}</style><g>	<rect x="-7.92" y="-24" class="st0" width="1100.92" height="1129.35"></rect>	<g>		<g>			<g>				<path class="st1" d="M110.71,660.01c3.69,0.53,6.96,1.02,9.68,1.44c2.71,0.41,5.18,0.95,7.22,1.6c2.83,0.83,4.64,2.32,5.43,4.45      c0.86,2.08,1.34,4.89,1.52,8.35c0.38,6.52,0.66,14.29,0.73,23.28c0.11,8.99,0.11,19.13,0.11,30.52      c0,18.46-0.05,34.15-0.15,47.06c-0.14,12.95-0.47,21.48-1,25.64c-0.12,3.22-0.84,5.78-2.03,7.75c-1.22,1.96-3.75,3.36-7.64,4.18      c-1.93,0.57-4.03,1-6.31,1.35c-2.17,0.34-4.83,0.6-7.86,0.89c-0.59,0.63-0.81,1.97-0.81,3.99c0.01,2.02,0.42,3.34,1.1,4.02      c4.48-0.03,10.04-0.19,16.64-0.4c6.64-0.25,13.95-0.39,21.87-0.39c7,0,13.88,0.14,20.47,0.39c6.64,0.21,11.71,0.37,15.29,0.4      c0.58-0.65,0.97-1.93,1.13-3.95c0.12-1.93-0.04-3.32-0.58-4.06c-3.34-0.41-6.4-0.85-9.21-1.27c-2.79-0.44-5.16-0.96-7.15-1.51      c-4.03-0.95-6.63-2.63-7.85-5.06c-1.25-2.43-1.86-5.62-1.86-9.66c-0.24-5.18-0.41-13.6-0.45-25.21      C159,762.15,159,749.29,159,735.23c-0.03-12.31-0.05-23.7-0.05-34.24c-0.04-10.53,0.14-18.83,0.53-24.87      c0.16-4.25,0.77-7.42,1.86-9.53c1.07-2.1,3.1-3.58,6.22-4.33c1.62-0.43,3.61-0.79,5.99-1.13c2.37-0.31,5.07-0.7,8.13-1.12      c0.39-0.85,0.56-2.16,0.46-3.97c-0.06-1.76-0.28-3.02-0.75-3.74c-3.57,0.02-8.37,0.14-14.37,0.37      c-6.02,0.24-12.7,0.37-20.02,0.43c-7.38-0.06-14.52-0.19-21.25-0.43c-6.7-0.23-11.59-0.35-14.77-0.37      c-0.46,0.59-0.72,1.86-0.86,3.74C109.98,657.95,110.18,659.27,110.71,660.01L110.71,660.01z"></path>				<path class="st1" d="M199.57,714.58c3.51,0.36,6.43,0.81,8.74,1.43c2.33,0.57,4.3,1.47,6.03,2.64c2.01,1.16,3.27,2.62,3.98,4.32      c0.74,1.69,1.02,3.3,0.98,4.74c-0.16,19.69-0.38,36.45-0.7,50.28c-0.28,13.84-0.57,23.31-0.99,28.37      c-0.16,3.5-0.85,6.06-2.01,7.66c-1.22,1.59-2.87,2.66-4.97,3.23c-1.39,0.37-2.85,0.7-4.41,1c-1.57,0.25-3.37,0.49-5.41,0.65      c-0.29,0.44-0.37,1.35-0.37,2.72c0,1.32,0.08,2.23,0.37,2.65c1.94-0.05,4.71-0.09,8.33-0.28c3.61-0.14,8.24-0.23,13.85-0.23      c5.22,0,9.78,0.09,13.79,0.23c3.93,0.19,7.05,0.24,9.33,0.28c0.29-0.51,0.5-1.37,0.65-2.65c0.17-1.28,0.06-2.18-0.29-2.72      c-2.31-0.23-4.41-0.51-6.25-0.74c-1.85-0.28-3.44-0.63-4.85-1.09c-2.43-0.49-4.22-1.55-5.42-3.18      c-1.29-1.66-1.98-4.27-2.18-7.92c-0.14-2.73-0.18-7.08-0.27-13.02c-0.07-5.97-0.12-12.65-0.12-20.07      c-0.05-7.37,0-14.6,0.05-21.67c0.03-7.06,0.11-13.04,0.16-17.91c0.03-0.13,0.12-0.22,0.31-0.25c0.18-0.04,0.34-0.04,0.46,0.03      c2.91,3.76,7.82,9.8,14.5,18.2c6.72,8.38,13.96,17.58,21.82,27.51c7.92,9.96,15.14,19.16,21.61,27.6      c6.55,8.38,11.14,14.49,13.84,18.24c1.34-0.09,3.53-0.14,6.42-0.14c2.94,0,5,0.05,6.29,0.14c-0.05-3.18-0.15-7.1-0.26-11.74      c-0.08-4.68-0.08-9.17-0.08-13.57c0.24-17.44,0.38-32.16,0.52-44.21c0.08-12.02,0.43-21.59,0.93-28.69      c0.11-2.48,0.62-4.55,1.51-6.21c0.85-1.67,2.47-2.92,4.79-3.75c1.17-0.37,2.42-0.72,3.7-0.97c1.32-0.33,2.76-0.6,4.41-0.9      c0.42-0.5,0.6-1.39,0.6-2.66c0-1.25-0.18-2.09-0.6-2.48c-1.47,0.02-4.24,0.1-8.33,0.28c-4.09,0.13-7.84,0.21-11.29,0.25      c-5.6-0.04-10.48-0.12-14.61-0.25c-4.22-0.18-7.48-0.26-9.92-0.28c-0.28,0.39-0.43,1.23-0.48,2.48      c-0.04,1.27,0.12,2.16,0.48,2.66c2.48,0.29,4.77,0.62,6.81,0.99c2.04,0.37,3.93,0.79,5.61,1.24c2.67,0.73,4.49,1.87,5.44,3.45      c0.92,1.6,1.44,3.71,1.54,6.36c0.32,4.64,0.48,11.05,0.64,19.25c0.07,8.24,0.12,17.14,0.12,26.72c0,9.54,0,18.66,0,27.29      c-0.08,0.09-0.18,0.17-0.32,0.24c-0.13,0.03-0.27,0.03-0.44-0.07c-2.33-2.74-6.07-7.27-11.35-13.59      c-5.2-6.3-11.11-13.48-17.78-21.52c-6.52-8.09-13.07-16.11-19.54-24.07c-6.45-8-12.12-15.02-16.96-21.07      c-2.37-2.98-4.01-5.21-4.91-6.6c-0.87-1.39-1.46-2.54-1.79-3.38c-0.77,0.07-1.87,0.12-3.32,0.15c-1.46,0.03-3.09,0.03-4.97,0.03      c-4.72-0.03-9.14-0.14-13.29-0.28c-4.12-0.18-7.4-0.26-9.82-0.28c-0.35,0.41-0.6,1.28-0.69,2.55      C199.17,713.29,199.26,714.15,199.57,714.58L199.57,714.58z"></path>				<path class="st1" d="M340.82,791.91c-0.59-0.25-1.64-0.21-3.05,0.21c-1.4,0.38-2.29,0.86-2.66,1.44c0.2,2.3,0.62,5.42,1.23,9.47      c0.56,4.01,1.27,7.82,2,11.42c0.72,3.58,1.38,5.88,1.95,6.87c2.37,1.18,5.96,2.41,10.8,3.69c4.87,1.25,10.14,1.9,15.82,2.02      c13.1-0.3,23.23-3.74,30.34-10.3c7.04-6.58,10.6-14.52,10.71-23.89c-0.13-6.67-1.91-12.16-5.26-16.48      c-3.37-4.27-7.54-7.94-12.53-10.91c-3.18-1.84-6.9-3.87-11.02-6.06c-4.1-2.2-8.09-4.49-11.86-6.91      c-3.89-2.56-7.04-5.44-9.23-8.66c-2.2-3.18-3.34-7.35-3.36-12.41c0.09-4.75,1.75-9.01,4.97-12.83      c3.24-3.81,8.05-5.84,14.43-6.02c2.85-0.02,5.5,0.24,8.06,0.81c2.58,0.59,4.91,1.58,6.94,3.06c2.22,1.39,3.84,3.59,4.85,6.52      c1.08,2.95,1.87,7.14,2.41,12.51c0.42,0.45,1.3,0.69,2.65,0.69c1.3-0.04,2.24-0.3,2.66-0.88c0.34-4.54,0.85-9.09,1.39-13.69      c0.48-4.57,1.1-8.46,1.75-11.61c-3.76-0.56-7.82-1.21-12.19-2.02c-4.32-0.79-9.62-1.23-15.91-1.32      c-10.34,0.07-18.92,2.81-25.78,8.2c-6.81,5.41-10.36,13.09-10.64,23.07c0.12,8.15,2.65,14.9,7.59,20.24      c4.96,5.37,11.61,10.32,19.94,14.88c8.31,4.69,14.42,9,18.39,12.98c3.91,3.95,5.92,8.88,5.86,14.77      c-0.26,6.88-2.37,11.86-6.35,14.94c-4.03,3.05-8.51,4.56-13.44,4.49c-3.58,0.02-6.89-0.37-9.99-1.19      c-3.08-0.79-5.82-2.07-8.13-3.83c-3.11-2.2-5.74-5.2-7.76-9.01C344.28,802.36,342.5,797.61,340.82,791.91L340.82,791.91z"></path>				<path class="st1" d="M464.02,777.48c1.13,0.35,2.31,0.6,3.65,0.72c1.29,0.13,2.74,0.21,4.33,0.16c3.17,0.04,6.35-0.29,9.66-1.02      c3.24-0.74,6.51-1.9,9.76-3.53c5.02-2.33,9.5-6.13,13.4-11.49c3.93-5.29,5.94-12.2,6.17-20.73c-0.08-6.06-1.19-11.17-3.41-15.25      c-2.22-4.1-4.85-7.33-8.02-9.73c-3.78-2.76-8.01-4.69-12.63-5.64c-4.65-0.95-8.64-1.44-11.98-1.35c-5.3,0-10.3,0.07-14.9,0.19      c-4.6,0.09-9.66,0.18-15.04,0.18c-4.55-0.03-8.87-0.14-13.02-0.28c-4.21-0.18-7.14-0.26-8.82-0.28      c-0.29,0.39-0.5,1.21-0.63,2.45c-0.16,1.22-0.07,2.12,0.3,2.69c3.63,0.41,6.66,0.92,9.06,1.5c2.48,0.48,4.22,1.46,5.09,2.9      c0.91,1.42,1.41,3.74,1.56,6.91c0.14,2.8,0.21,7.49,0.21,13.96c0,6.49,0,15.04-0.07,25.64c0,10.06,0,18.63-0.08,25.78      c-0.1,7.17-0.24,12.37-0.46,15.62c-0.11,3.6-0.56,6.16-1.27,7.66c-0.82,1.5-2.31,2.51-4.46,3.06c-1.12,0.28-2.58,0.54-4.3,0.75      c-1.72,0.25-3.53,0.46-5.5,0.74c-0.28,0.44-0.43,1.25-0.42,2.54c0.05,1.28,0.26,2.11,0.63,2.62c2.31-0.05,5.84-0.09,10.47-0.28      c4.69-0.14,9.27-0.23,13.73-0.23c3.88,0,8.36,0.09,13.47,0.23c5.09,0.19,9.07,0.24,12.08,0.28c0.26-0.42,0.46-1.28,0.57-2.6      c0.08-1.3-0.08-2.2-0.41-2.76c-2.23-0.23-4.3-0.51-6.18-0.72c-1.89-0.28-3.53-0.56-4.93-0.93c-2.53-0.53-4.24-1.44-5.16-2.69      c-0.92-1.26-1.51-3.5-1.7-6.75c-0.14-4.64-0.26-10.63-0.22-17.9c0.04-7.29,0.04-16.17,0.06-26.65c0-9.88,0.02-17.82,0.08-23.73      c0.01-5.95,0.04-10.43,0.1-13.55c0.07-3.05,0.13-5.23,0.17-6.55c0.12-0.67,0.33-1.21,0.59-1.65c0.29-0.44,0.59-0.78,0.89-0.96      c0.77-0.36,2.01-0.62,3.67-0.73c1.66-0.12,3.06-0.21,4.1-0.21c10.46,0.2,18.02,2.95,22.73,8.36c4.64,5.36,6.96,12.42,6.91,21.07      c0.04,5.33-0.77,10.01-2.44,14.05c-1.72,4.12-4.67,7.41-8.85,9.83c-1.87,0.93-3.78,1.61-5.81,2.09      c-2.06,0.46-4.39,0.67-7.18,0.67c-1.39,0-2.75-0.06-3.98-0.11c-1.32-0.1-2.37-0.28-3.18-0.44c-0.22,0.11-0.43,0.32-0.56,0.6      c-0.13,0.32-0.21,0.65-0.22,1.04c0.09,0.54,0.39,1.3,0.85,2.28C462.92,776.29,463.46,777.01,464.02,777.48L464.02,777.48z"></path>				<path class="st1" d="M523.22,714.58c2.51,0.36,4.6,0.68,6.47,0.96c1.84,0.28,3.46,0.62,4.81,1.07c1.86,0.6,3.08,1.53,3.62,2.95      c0.56,1.39,0.88,3.27,1.02,5.56c0.25,4.37,0.38,9.55,0.45,15.53c0.06,5.98,0.08,12.75,0.08,20.37c0,12.31-0.03,22.75-0.08,31.38      c-0.11,8.6-0.31,14.32-0.66,17.09c-0.08,2.11-0.57,3.83-1.36,5.14c-0.84,1.34-2.52,2.29-5.12,2.82      c-1.29,0.37-2.67,0.63-4.17,0.83c-1.48,0.26-3.26,0.45-5.27,0.6c-0.36,0.44-0.55,1.35-0.55,2.72c0.03,1.32,0.31,2.23,0.74,2.65      c3.01-0.05,6.7-0.09,11.11-0.28c4.41-0.14,9.29-0.23,14.57-0.23c4.68,0,9.27,0.09,13.66,0.23c4.43,0.19,7.84,0.24,10.18,0.28      c0.39-0.42,0.66-1.28,0.77-2.6c0.09-1.3,0-2.2-0.37-2.76c-2.26-0.23-4.28-0.53-6.14-0.83c-1.88-0.28-3.48-0.63-4.77-1      c-2.68-0.66-4.45-1.76-5.25-3.39c-0.81-1.59-1.27-3.74-1.27-6.39c-0.14-3.45-0.25-9.1-0.25-16.84      c-0.05-7.75-0.05-16.35-0.05-25.73c-0.03-8.17-0.03-15.77-0.03-22.81c-0.02-7.01,0.12-12.56,0.33-16.56      c0.14-2.83,0.57-4.96,1.27-6.35c0.67-1.44,2.06-2.4,4.13-2.9c1.12-0.27,2.4-0.51,4.01-0.74c1.58-0.22,3.36-0.47,5.42-0.76      c0.26-0.54,0.37-1.44,0.32-2.66c-0.06-1.18-0.21-2.02-0.49-2.48c-2.37,0.02-5.59,0.1-9.59,0.28c-4.05,0.13-8.46,0.21-13.34,0.25      c-4.96-0.04-9.67-0.12-14.15-0.25c-4.49-0.18-7.78-0.26-9.86-0.28c-0.35,0.39-0.51,1.23-0.6,2.48      C522.76,713.19,522.87,714.08,523.22,714.58L523.22,714.58z"></path>				<path class="st2" d="M590.05,714.58c1.88,0.21,3.65,0.43,5.38,0.68c1.68,0.25,3.23,0.54,4.64,0.82c2.25,0.5,3.83,1.4,4.7,2.69      c0.9,1.33,1.33,3.25,1.42,5.82c0.06,3.1,0.13,8.67,0.16,16.62c0,7.95,0.03,16.77,0.03,26.47c0,3.62-0.03,8.22-0.08,13.84      c-0.03,5.6-0.09,10.89-0.11,15.86c-0.09,4.94-0.13,8.23-0.2,9.9c-0.14,3.41-0.71,5.89-1.65,7.36c-0.89,1.48-2.41,2.41-4.66,2.8      c-1.16,0.28-2.54,0.51-4.07,0.77c-1.55,0.18-3.36,0.46-5.35,0.69c-0.45,0.53-0.71,1.44-0.71,2.72c0,1.28,0.25,2.14,0.71,2.65      c1.78-0.05,4.64-0.12,8.54-0.28c3.96-0.14,8.94-0.23,14.95-0.25c6.12,0.02,11.29,0.12,15.53,0.25c4.24,0.16,7.26,0.24,9.04,0.28      c0.47-0.51,0.79-1.37,0.88-2.65c0.13-1.28-0.06-2.18-0.5-2.72c-2.13-0.25-4.04-0.53-5.72-0.81c-1.74-0.26-3.26-0.56-4.64-0.84      c-2.11-0.37-3.55-1.19-4.43-2.43c-0.83-1.22-1.37-3.39-1.51-6.45c-0.11-2.15-0.21-5.2-0.28-9.12c-0.01-3.97-0.05-8.1-0.05-12.51      c-0.03-4.41-0.03-8.37-0.03-11.85c0-0.1,0.07-0.35,0.21-0.61c0.14-0.29,0.32-0.45,0.53-0.47c1.48-0.05,3.7-0.05,6.52-0.07      c2.91,0,5.05,0.07,6.6,0.21c0.76,0,1.53,0.23,2.37,0.72c0.85,0.46,1.59,1.14,2.25,2.07c2.43,3.46,5.12,7.5,8.12,12.12      c3.08,4.67,6.09,9.23,9.1,13.72c3.03,4.43,5.72,8.1,8.12,11c1.52,1.93,3.1,3.48,4.57,4.69c1.46,1.18,2.89,2.09,4.28,2.67      c2.37,1.12,5.34,1.98,8.96,2.49c3.55,0.56,7.22,0.88,10.95,1.02c3.68,0.16,6.93,0.16,9.66,0.02c0.6-0.32,0.92-1.16,1.13-2.51      c0.2-1.35,0.2-2.23,0-2.67c-5.26-0.56-9.27-1.46-11.99-2.71c-2.66-1.23-5.78-3.71-9.29-7.45c-3.08-3.19-6.59-7.26-10.4-12.16      c-3.88-4.9-7.49-9.86-11.04-14.89c-3.5-5.02-6.43-9.29-8.66-12.87c-0.09-0.2-0.09-0.43-0.03-0.68c0.07-0.23,0.2-0.44,0.42-0.62      c5.71-2.44,10.58-6.11,14.61-10.92c4.12-4.87,6.23-11.14,6.42-18.85c-0.03-8.02-2.81-14.7-8.44-20.05      c-5.61-5.41-13.79-8.22-24.64-8.43c-3.68,0-8.05,0.07-13.02,0.16c-5.01,0.11-10.86,0.18-17.73,0.21      c-3.05-0.05-6.79-0.14-11.07-0.28c-4.31-0.18-7.69-0.26-10.18-0.29c-0.37,0.34-0.62,1.15-0.74,2.46      C589.61,713.16,589.72,714.08,590.05,714.58L590.05,714.58z M630.19,715.86c9.85,0.09,17.12,2.49,21.75,7.28      c4.69,4.78,6.96,11.55,6.93,20.3c-0.16,5.99-1.4,10.7-3.76,14.19c-2.44,3.5-5.15,5.9-8.28,7.3c-1.74,0.69-4.59,1.18-8.59,1.43      c-4,0.19-9.08,0.21-15.25,0.03c-0.29-0.03-0.52-0.12-0.69-0.35c-0.17-0.16-0.24-0.37-0.24-0.54c0-5.01,0-10.64,0.03-16.93      c0-6.27,0.03-12.12,0.05-17.5c0.07-5.36,0.17-9.19,0.28-11.48c0.01-0.5,0.14-1.02,0.45-1.61c0.28-0.57,0.53-0.96,0.85-1.16      c0.96-0.36,2.1-0.62,3.37-0.73C628.36,715.96,629.37,715.86,630.19,715.86L630.19,715.86z"></path>				<path class="st1" d="M721.3,714.58c2.46,0.36,4.62,0.68,6.49,0.96c1.82,0.27,3.42,0.62,4.81,1.07c1.85,0.57,3.04,1.53,3.61,2.94      c0.49,1.4,0.85,3.26,1,5.56c0.24,4.37,0.43,9.55,0.46,15.54c0.07,5.98,0.09,12.75,0.07,20.37c0.02,12.29,0,22.74-0.07,31.38      c-0.09,8.6-0.3,14.29-0.66,17.06c-0.1,2.13-0.56,3.86-1.37,5.16c-0.81,1.29-2.52,2.26-5.1,2.8c-1.26,0.39-2.66,0.65-4.14,0.86      c-1.57,0.26-3.28,0.45-5.28,0.6c-0.38,0.44-0.6,1.35-0.57,2.72c0.05,1.32,0.29,2.2,0.74,2.65c3.03-0.05,6.7-0.12,11.07-0.28      c4.47-0.14,9.29-0.23,14.62-0.25c4.66,0.02,9.24,0.12,13.67,0.25c4.42,0.16,7.81,0.24,10.18,0.28c0.36-0.42,0.66-1.28,0.76-2.6      c0.12-1.32,0-2.2-0.41-2.76c-2.19-0.23-4.26-0.53-6.1-0.83c-1.92-0.28-3.47-0.63-4.81-1c-2.67-0.66-4.43-1.76-5.23-3.39      c-0.8-1.6-1.19-3.76-1.19-6.39c-0.2-3.45-0.3-9.11-0.34-16.85c-0.03-7.74-0.07-16.34-0.07-25.72c0-8.17,0-15.78-0.03-22.81      c0-7.03,0.14-12.56,0.44-16.56c0.12-2.85,0.5-4.98,1.19-6.37c0.69-1.42,2.09-2.38,4.14-2.88c1.09-0.28,2.44-0.51,4.04-0.77      c1.56-0.2,3.38-0.46,5.4-0.73c0.3-0.54,0.37-1.45,0.31-2.66c-0.01-1.18-0.23-2.02-0.48-2.5c-2.41,0.04-5.64,0.11-9.62,0.27      c-4.01,0.15-8.46,0.23-13.34,0.27c-4.94-0.04-9.69-0.12-14.14-0.27c-4.48-0.16-7.75-0.24-9.91-0.27      c-0.27,0.41-0.47,1.24-0.54,2.5C720.81,713.19,720.95,714.08,721.3,714.58L721.3,714.58z"></path>				<path class="st2" d="M791.55,816.52c-0.52,0.74-0.85,2.09-0.85,3.99c0,1.93,0.32,3.27,0.85,4.02c2.58-0.03,6.22-0.19,10.88-0.4      c4.73-0.25,10.96-0.39,18.78-0.39c7.96,0,15,0.14,21.42,0.39c6.32,0.21,11.06,0.37,14.16,0.4c0.37-0.74,0.69-2.09,0.85-4.02      c0.15-1.9,0.01-3.25-0.38-3.99c-2.64-0.29-5.12-0.65-7.38-1.02c-2.22-0.4-4.24-0.79-5.96-1.22c-4.12-1.08-6.71-2.43-7.74-4.05      c-1-1.6-1.37-3.64-1.1-5.94c0.23-2.37,1.21-6.13,2.9-11.28c1.66-5.17,3.62-10.77,5.81-16.83c2.3-6.07,4.33-11.68,6.28-16.87      c0.14-0.47,0.5-0.99,1.04-1.52c0.61-0.6,1.12-0.9,1.75-0.95h49.04c0.32,0.04,0.83,0.26,1.39,0.68c0.53,0.38,0.95,0.81,1.15,1.26      c1.69,4.28,3.61,9.39,5.79,15.27c2.15,5.88,4.17,11.74,6.13,17.54c1.98,5.85,3.52,10.79,4.73,14.9      c0.41,1.27,0.46,2.55,0.14,3.81c-0.4,1.24-1.46,2.29-3.21,3.15c-2.06,0.68-4.37,1.25-6.91,1.73c-2.53,0.48-5.29,0.92-8.35,1.34      c-0.54,0.74-0.75,2.09-0.62,3.99c0.17,1.93,0.47,3.27,0.89,4.02c3.22-0.16,8.28-0.32,15.25-0.51      c6.98-0.18,14.01-0.28,21.09-0.28c6.39,0,12.71,0.09,18.92,0.28c6.15,0.19,11.16,0.35,14.89,0.51c0.48-0.79,0.8-2.16,1.06-4.11      c0.2-1.99,0.07-3.29-0.46-3.9c-6.53-0.73-11.45-1.66-14.86-2.83c-3.37-1.16-6.18-3.18-8.2-6.13c-2.1-2.92-4.38-7.45-6.9-13.53      c-2.53-6.11-6.09-15.23-10.53-27.26c-4.43-12.1-9.18-24.99-14.07-38.74c-4.91-13.71-9.36-26.2-13.27-37.33      c-3.95-11.18-6.65-18.89-8.18-23.19c-0.98-2.61-1.82-5.18-2.55-7.61c-0.74-2.43-1.36-4.69-1.87-6.78      c-0.43,0-1.37,0.05-2.83,0.13c-1.46,0.06-3.61,0.11-6.33,0.13c-2.4-0.02-4.33-0.07-5.96-0.13c-1.58-0.08-2.67-0.13-3.24-0.13      c-0.24,2-0.85,4.36-1.72,7.18c-0.86,2.76-1.82,5.64-2.97,8.59c-1.59,4.65-4.21,11.91-7.87,21.8      c-3.54,9.84-7.67,20.89-12.26,33.15c-4.65,12.24-9.19,24.35-13.86,36.17c-4.58,11.84-8.68,22.08-12.32,30.71      c-2.94,6.97-5.59,12.2-8.07,15.62c-2.43,3.44-5.46,5.79-9.1,7.13C803.17,814.78,798.09,815.8,791.55,816.52L791.55,816.52z       M878.35,681.88c1.59,4.18,3.56,9.82,6.06,16.97c2.48,7.14,5.05,14.59,7.7,22.31c2.58,7.71,4.86,14.53,6.79,20.45      c0.27,0.59,0.27,1.09,0,1.52c-0.25,0.44-0.53,0.7-0.86,0.7c-1.52,0.13-4.2,0.2-7.82,0.22c-3.65,0.03-7.21,0.04-10.76,0.03      c-5.32,0.01-9.98,0-13.99-0.03c-4.01-0.02-6.7-0.09-8.2-0.22c-0.8-0.24-1.13-0.87-1.06-1.94c1.63-5.08,3.76-11.38,6.43-18.89      c2.65-7.5,5.28-15,7.92-22.42c2.63-7.42,4.79-13.56,6.48-18.37c0.12-0.28,0.34-0.41,0.62-0.38      C878.02,681.83,878.22,681.88,878.35,681.88L878.35,681.88z"></path>			</g>			<g>				<path class="st1" d="M115.45,853.76h12.49v28.3l14.64-28.3h11.5l-12.37,24.67l11.74,36.33h-13.83l-6.92-25.34l-4.76,8.54v16.8      h-12.49V853.76z"></path>				<path class="st1" d="M172.04,853.76h15.98l11.06,33.21v-33.21h9.8v61h-12.4l-14.73-40.07v40.07h-9.71V853.76z"></path>				<path class="st1" d="M235.2,857.63c3.53-3.17,8.09-4.76,13.65-4.76c5.57,0,10.12,1.59,13.65,4.76c3.53,3.17,5.3,7.79,5.3,13.83      v25.6c0,6.05-1.77,10.66-5.3,13.83c-3.53,3.18-8.09,4.77-13.65,4.77c-5.57,0-10.12-1.59-13.65-4.77      c-3.54-3.17-5.3-7.78-5.3-13.83v-25.6C229.9,865.42,231.66,860.8,235.2,857.63z M248.85,865.27c-4.19,0-6.29,2.58-6.29,7.72      v22.37c0,5.27,2.1,7.91,6.29,7.91c4.19,0,6.29-2.64,6.29-7.91v-22.37C255.14,867.85,253.05,865.27,248.85,865.27z"></path>				<path class="st1" d="M347.63,853.76l-8.94,61h-13.65l-7.91-38.75l-7.29,38.75h-13.09l-11.05-61h14.55l5.49,37.62l7.45-37.62      h9.86l8.74,39.57l5.38-39.57H347.63z"></path>				<path class="st1" d="M368.06,914.76v-61h12.58v48.6h15.45v12.4H368.06z"></path>				<path class="st1" d="M415.41,914.76v-61h29.83v12.4h-17.16v12.58h12.31v10.15h-12.31v13.48h17.34v12.4H415.41z"></path>				<path class="st1" d="M483.68,914.76h-18.06v-61h18.06c5.51,0,9.86,1.5,13.07,4.49c3.21,3,4.81,7.52,4.81,13.57v24.89      c0,6.1-1.59,10.64-4.76,13.61C493.62,913.28,489.25,914.76,483.68,914.76z M478.29,902.9h4.31c4.19,0,6.29-2.64,6.29-7.91      v-21.64c0-5.15-2.1-7.73-6.29-7.73h-4.31V902.9z"></path>				<path class="st1" d="M550.51,914.76v-8.9c-1.55,6.53-6.18,9.8-13.91,9.8c-4.32,0-7.87-1.59-10.65-4.77      c-2.78-3.17-4.18-7.78-4.18-13.83v-25.6c0-6.04,1.69-10.66,5.08-13.83c3.38-3.17,7.8-4.76,13.26-4.76      c5.43,0,9.67,1.56,12.7,4.67c3.01,3.11,4.53,7.76,4.53,13.92v2.87l-10.32,0.72v-2.07c0-5.14-2.1-7.72-6.3-7.72      c-4.12,0-6.19,2.58-6.19,7.72v22.37c0,5.27,2.13,7.91,6.37,7.91c1.98,0,3.55-0.73,4.72-2.21c1.17-1.47,1.76-3.61,1.76-6.42v-3.5      h-7.37v-9.17h18.23v32.79H550.51z"></path>				<path class="st1" d="M579.17,914.76v-61H609v12.4h-17.16v12.58h12.31v10.15h-12.31v13.48h17.34v12.4H579.17z"></path>				<path class="st1" d="M680.5,891.85l10.68,0.81v4.4c0,6.05-1.65,10.66-4.98,13.83c-3.32,3.18-7.62,4.77-12.89,4.77      c-5.51,0-9.88-1.58-13.11-4.72c-3.24-3.15-4.86-7.78-4.86-13.88v-25.6c0-6.1,1.62-10.73,4.86-13.88      c3.23-3.14,7.6-4.71,13.11-4.71c5.27,0,9.57,1.59,12.89,4.76c3.33,3.17,4.98,7.79,4.98,13.83v4.49l-10.68,0.72v-3.69      c0-5.14-2.07-7.72-6.2-7.72c-4.25,0-6.38,2.58-6.38,7.72v22.37c0,5.27,2.13,7.91,6.38,7.91c4.13,0,6.2-2.64,6.2-7.91V891.85z"></path>				<path class="st1" d="M707.55,914.76l13.48-61h16.44l11.42,61H734l-1.86-11.14H720.9l-2.04,11.14H707.55z M726.92,869.2      l-4.67,24.18h8.92L726.92,869.2z"></path>				<path class="st1" d="M768.37,914.76v-61h16.58l8.4,40.12l7.25-40.12h16.82v61h-11.77v-45.27l-8.09,45.27h-10.87l-8.8-45.11      v45.11H768.37z"></path>				<path class="st1" d="M852,893.84v20.93h-12.66v-61h19.05c5.08,0,9.01,1.25,11.76,3.73c2.75,2.49,4.13,6.15,4.13,11.01v11.05      c0,4.74-1.24,8.29-3.73,10.69s-6.06,3.6-10.73,3.6H852z M856.22,883.32c3.66,0,5.48-1.85,5.48-5.57v-6.92      c0-3.48-1.85-5.21-5.57-5.21h-4.22v17.7H856.22z"></path>				<path class="st1" d="M920.17,853.76h9.89v42.31c0,6.71-1.62,11.65-4.86,14.82c-3.23,3.18-7.42,4.77-12.57,4.77      c-5.45,0-9.87-1.56-13.25-4.68c-3.39-3.11-5.08-7.78-5.08-14.01v-43.21h13.12v41.05c0,5.64,2.07,8.45,6.2,8.45      c4.37,0,6.55-2.84,6.55-8.54V853.76z"></path>				<path class="st1" d="M967.25,915.67c-11.73,0-17.61-6.08-17.61-18.24v-3.41l9.7-0.9v2.96c0,3.54,0.46,5.99,1.35,7.37      c0.9,1.38,2.43,2.06,4.59,2.06c1.85,0,3.34-0.64,4.45-1.92c1.1-1.28,1.65-3.18,1.65-5.69c0-3.04-1.39-5.46-4.16-7.25l-7.88-5.44      c-3.53-2.45-5.93-4.79-7.18-7.01c-1.26-2.21-1.88-5.27-1.88-9.17c0-4.43,1.44-8.23,4.31-11.41c2.87-3.17,6.95-4.76,12.22-4.76      c5.09,0,9.18,1.22,12.26,3.68c3.09,2.46,4.63,6.32,4.63,11.59v4.4l-9.7,0.9v-3.51c0-5.03-1.76-7.54-5.3-7.54      c-1.67,0-2.97,0.59-3.9,1.79c-0.93,1.21-1.4,2.79-1.4,4.78c0,1.92,0.36,3.42,1.08,4.5c0.71,1.08,2.02,2.2,3.93,3.34l8.35,5.66      c2.76,1.85,4.79,3.94,6.08,6.27c1.29,2.33,1.93,5.47,1.93,9.41c0,5.15-1.41,9.35-4.22,12.62      C977.74,914.03,973.31,915.67,967.25,915.67z"></path>			</g>			<g>				<path class="st3" d="M329.35,586.31c0,0,128.5-69.96,229.62-150.64c-8.7-19.13-15.29-39.43-19.47-60.62      C444.79,486.76,329.35,586.31,329.35,586.31z"></path>				<path class="st3" d="M354.63,597.93c0,0,159.9-25.62,258.15-83.51c-12.8-13.16-24.34-27.62-34.37-43.13      C479.73,541.59,354.63,597.93,354.63,597.93z"></path>				<path class="st3" d="M391.76,609.12c0,0,165.92,48.44,247.39,10.51c23.88-11.11,40.51-30.18,47.67-51.03      c-12.72-6.44-24.9-13.78-36.45-21.98C573.7,599.7,391.76,609.12,391.76,609.12z"></path>				<path class="st1" d="M646.42,352.16c60.79-72.23,59.44-160.93,14.82-191.55c-4.04,57.55-54.79,134.48-115.44,207.02      c-2.08,2.51-4.18,4.95-6.3,7.42c4.18,21.19,10.77,41.49,19.47,60.62c19.8-15.75,38.56-31.96,55.06-48.13      C626.2,375.65,637.16,363.81,646.42,352.16z"></path>				<path class="st1" d="M698.17,412.14c6.38-23.69,5.27-46.35-6.61-60.93c-5.64,16.31-16.72,33.07-31.57,49.79      c-21.17,23.94-50.05,47.84-81.59,70.29c10.03,15.51,21.57,29.97,34.37,43.13c9.84-5.8,19.06-11.89,27.44-18.33      C667.75,477.48,689.69,443.87,698.17,412.14z"></path>				<path class="st1" d="M680.67,511.56c-5.05,13.42-15.8,25.02-30.3,35.07c11.55,8.21,23.72,15.55,36.45,21.98      C693.31,549.61,691.94,529.06,680.67,511.56z"></path>			</g>		</g>		<g>			<path class="st1" d="M935.71,663.68c-11.06,0-20.07-9-20.07-20.07s9-20.07,20.07-20.07c11.07,0,20.07,9,20.07,20.07     S946.77,663.68,935.71,663.68z M935.71,625.78c-9.84,0-17.84,8-17.84,17.84c0,9.83,8,17.84,17.84,17.84     c9.84,0,17.84-8,17.84-17.84C953.54,633.78,945.54,625.78,935.71,625.78z"></path>			<g>				<g>					<path class="st1" d="M944.68,653.49h-2.08l-7.09-7.76h-5.6v7.76h-1.58v-20.51c3.02,0,6.01,0,9.02,0c4.45,0,6.71,3.19,6.74,6.39       c0.03,3.34-2.17,6.27-6.65,6.27L944.68,653.49z M929.91,644.23h7.27c3.57,0,5.16-2.02,5.19-4.89c0.03-2.4-1.61-4.89-5.01-4.89       h-7.44V644.23z"></path>					<path class="st1" d="M945.95,654.05h-3.6l-7.09-7.76h-4.79v7.76h-2.7v-21.62h9.58c4.75,0,7.26,3.49,7.3,6.94       c0.02,1.9-0.64,3.62-1.85,4.84c-1.05,1.06-2.47,1.71-4.15,1.92L945.95,654.05z M942.84,652.93h0.56l-7.24-7.85h1.27       c1.91,0,3.49-0.57,4.56-1.66c1-1.01,1.54-2.45,1.53-4.05c-0.03-2.81-1.97-5.83-6.18-5.83h-8.47v19.4h0.47v-7.76h6.4       L942.84,652.93z M937.18,644.79h-7.82v-10.9h8c1.64,0,3.04,0.54,4.05,1.56c0.98,1,1.54,2.42,1.52,3.89       C942.88,642.8,940.79,644.79,937.18,644.79z M930.47,643.67h6.71c3.79,0,4.61-2.36,4.63-4.34c0.01-1.18-0.42-2.31-1.2-3.1       c-0.8-0.8-1.92-1.23-3.25-1.23h-6.89V643.67z"></path>				</g>			</g>		</g>	</g></g></svg>