<svg xmlns="http://www.w3.org/2000/svg" xmlns:xlink="http://www.w3.org/1999/xlink" id="Layer_1" x="0px" y="0px" viewBox="0 0 238 233" style="enable-background:new 0 0 238 233;" xml:space="preserve"><style type="text/css">	.st0{fill:#EBBC95;}	.st1{fill-rule:evenodd;clip-rule:evenodd;fill:#E29E07;}	.st2{fill-rule:evenodd;clip-rule:evenodd;fill:#F7C00F;}	.st3{fill-rule:evenodd;clip-rule:evenodd;fill:#F9D20D;}	.st4{fill:#EA9358;}	.st5{fill:#091C21;}	.st6{fill:#0B1214;}	.st7{fill:#0D123A;}	.st8{fill:#2B337A;}	.st9{opacity:0.3;fill:#606161;}	.st10{fill:none;}	.st11{fill:url(#SVGID_1_);}	.st12{fill:url(#SVGID_2_);}	.st13{fill:#332010;}	.st14{fill:#F4C9A8;}	.st15{fill:#382525;}	.st16{fill:#FFFFFF;}	.st17{clip-path:url(#SVGID_4_);}	.st18{fill:url(#SVGID_5_);}	.st19{fill:#603917;}	.st20{fill:#A67D52;}	.st21{opacity:0.6;fill:#A67D52;}	.st22{opacity:0.5;fill:#C49A6C;}	.st23{fill:#492E11;}	.st24{fill:#CF936B;}	.st25{fill:#A34545;}	.st26{opacity:0.62;fill:#CF936B;}	.st27{opacity:0.21;clip-path:url(#SVGID_7_);fill:#CF936B;}	.st28{fill:#341F12;}	.st29{opacity:0.57;fill:#1D1213;}	.st30{opacity:0.09;}	.st31{fill:#9A6A28;}	.st32{fill:#5B3A18;}	.st33{opacity:0.54;fill:#9A6A28;}	.st34{fill:url(#SVGID_8_);}	.st35{fill:#350707;}	.st36{fill:url(#SVGID_9_);}	.st37{fill:#5A5C66;}	.st38{opacity:0.4;fill:#5A5C66;}	.st39{opacity:0.4;}	.st40{fill:#CC7F53;}	.st41{opacity:0.4;fill:#CC7F53;}</style><g>	<path class="st0" d="M87.46,100.49l30.93-5.46c1.82-5.46,5.45-21.24,7.26-26.1c0.21-0.56,5.18-2.34,5.18-2.34   s-0.19,36.21-3.35,38.45c-6.55,4.64-41.85,8.19-41.85,8.19L87.46,100.49z"></path>	<polygon class="st1" points="55,186.13 66.48,228.05 228.93,139.07  "></polygon>	<polygon class="st2" points="68.3,193.3 66.48,228.05 228.93,139.07  "></polygon>	<polygon class="st3" points="12.03,173.86 228.93,139.07 55,186.13  "></polygon>	<polygon class="st3" points="228.93,139.07 68.3,193.3 113.32,218.87  "></polygon>	<g>		<g>			<path class="st0" d="M180.9,180.59c0,0,3.55,2.25,4.68,4.85c1.13,2.6,2.34,3.21,4.16,3.21c1.82,0,12.48-13.6,12.56-15.68     c0.09-2.08-2.6-2.43-5.8,0c-3.21,2.43-6.41,4.2-10.14,1.86C182.46,175.7,180.9,180.59,180.9,180.59z"></path>			<path class="st4" d="M186.45,184.48c-3.08-3.69,1.17-5.69,2.94-8.59c-0.98-0.08-1.98-0.41-3.03-1.07     c-3.9,0.87-5.46,5.76-5.46,5.76s3.55,2.25,4.68,4.85c1.13,2.6,2.34,3.21,4.16,3.21c0.13,0,0.31-0.08,0.53-0.21     C188.9,187.17,187.67,185.7,186.45,184.48z"></path>			<g>				<path class="st5" d="M185.4,185.08c0,0,1.56,4.39,7.85,6.26c2.95-1.99,5-5.33,5-5.33l-0.78-1.06c0,0,2.14-2.86,5.52-6.8      c3.38-3.94,4.76-6.97,5.2-9.1c0.43-2.12-2.56-3.57-4.07-2.23c-1.52,1.34-10.66,7.45-12.22,7.93c-1.56,0.48-1.3,2.73,1.04,2.56      c1.34,0.69-1.34,3.9-3.25,5.07C187.79,183.54,185.4,185.08,185.4,185.08z"></path>				<path class="st6" d="M207,166.7c-0.01,1.37-0.49,4.06-3.36,7.8c-4.11,5.35-8.46,11.53-14.07,15.19c1,0.63,2.2,1.21,3.68,1.64      c2.95-1.99,5-5.33,5-5.33l-0.78-1.06c0,0,2.14-2.86,5.52-6.8c3.38-3.94,4.76-6.97,5.2-9.1C208.4,168.03,207.82,167.18,207,166.7      z"></path>			</g>		</g>		<g>			<path class="st0" d="M140.71,179.08c0,0,1.85,3.7,3.47,5.78c1.62,2.08,6.35,4.51,7.28,5.31c0.92,0.81-2.89,3.23-7.97,3     c-5.08-0.23-9.01-1.39-9.36-1.96s0.81-3.35-1.5-10.28C133.09,177.57,140.71,179.08,140.71,179.08z"></path>			<path class="st4" d="M136.73,185.82c0.55-1.65,4.24-1.05,6.31-2.62c-1.24-1.95-2.33-4.13-2.33-4.13s-7.62-1.5-8.09,1.85     c2.31,6.93,1.16,9.7,1.5,10.28c0.11,0.18,0.56,0.42,1.29,0.66C135.24,189.64,135.99,187.32,136.73,185.82z"></path>			<g>				<path class="st5" d="M134.08,187.7c0,0-1.22,3.7-0.91,9.55c4.39,2.54,8.01,2.77,8.01,2.77l0.62-1.62c0,0,3,2,7.78,3.08      c4.77,1.08,9.47,2,13.25,0.62c3.77-1.39,2.16-3.93-3.62-6.55c-5.78-2.62-8.09-6.32-10.4-8.24c-2.31-1.93-4.93,0.54-4.16,3.39      C139.71,191.63,136.01,190.32,134.08,187.7z"></path>				<path class="st6" d="M146.26,197.95c-6.24-1.96-11.16-5.17-12.92-6.42c-0.18,1.53-0.29,3.46-0.17,5.72      c4.39,2.54,8.01,2.77,8.01,2.77l0.62-1.62c0,0,3,2,7.78,3.08c4.77,1.08,9.47,2,13.25,0.62c2.2-0.81,2.56-2.01,1.34-3.39      C163.4,202.59,153.66,200.27,146.26,197.95z"></path>			</g>		</g>		<g>			<path class="st7" d="M62.4,172.61c0,0,1.87,3.82,8.73-3.29c6.85-7.12-0.14-14.27-0.14-14.27S62.23,165.12,62.4,172.61z"></path>			<path class="st8" d="M81.9,152.29c0,0-16.16,6.83-19.5,20.32c-10.54-22.1-15.67-42.25-11.04-57.8     c4.63-15.55,21.76-17.43,25.33-16.95c3.57,0.48,14.54,1.27,19.18,10.56c4.64,9.29,2.33,41.16,2.33,41.16L81.9,152.29z"></path>			<path class="st7" d="M58.38,141.78c7.66-7.02,8.29-17.23,4.47-26.16c-5.39,4.19-8.53,10.07-13.12,14.47     c0.25,5.19,1.19,10.69,2.73,16.44c2.27-2.35,3.82-5.42,5.93-7.95C58.38,139.87,58.38,140.5,58.38,141.78z"></path>			<path class="st7" d="M74.97,136.68c-7.9,3.07-15.19,6.45-22.5,9.91c2.2,8.22,5.61,16.96,9.94,26.02     c0.58-2.33,1.54-4.46,2.73-6.39c-1.49-4.86-2.78-9.74,0.9-12.96c6.49-5.62,14.44-4.5,22.07-2l10.09-1.68c0,0,0.2-2.81,0.37-7.01     C91.27,138.34,82.58,133.75,74.97,136.68z"></path>			<path class="st7" d="M87.94,103.75c0.16-1.37-0.22-2.49-0.79-3.37c-4.21-1.87-8.49-2.24-10.47-2.5c-1.5-0.2-5.42,0.02-9.79,1.5     c0.88,0.39,2.93,1.46,3.78,3.37c1.1,2.47,3.97,6.69,7.93,6.32C82.57,108.69,87.46,107.78,87.94,103.75z"></path>		</g>		<path class="st7" d="M100.37,155.48c0,0,39.86-9.92,47.75-11.42c7.9-1.49,32.52,25.29,39.95,31.41c-5.57,6.12-7.17,7.02-7.17,7.02    s-21.4-12.91-32.08-22.7c-17.42,8.56-38.11,20.16-47.83,20.16c-9.72,0-13.61-6.58-13.55-7.35    C87.5,171.84,100.37,155.48,100.37,155.48z"></path>		<path class="st9" d="M188.07,175.48c-7.43-6.12-32.05-32.9-39.95-31.41c-4.92,0.93-22.25,5.14-34.61,8.17    c0.5,0.27,1.39,0.41,2.93,0.29c5.74-0.44,28.82-4.54,31.58-5.15c2.76-0.61,2.98,2.98,5.85,3.63c2.73,0.62,19.49,17.28,32.22,26.59    C186.69,176.98,187.35,176.27,188.07,175.48z"></path>		<g>			<path class="st0" d="M60.56,175.86c0,0,7.57,1.75,8.5,7.9c-3.23,0.52-5.2-0.47-5.2-0.47l-8.31-5.74L60.56,175.86z"></path>			<g>				<path class="st0" d="M63.13,178.17c0,0-6.82-24.5-7.01-25.45c-0.01-0.04,0.01-0.06,0.03-0.08c-0.89-1.75-2.35-16-3.18-17.75      c-1.44-3.01-2.25,6.42-3.98,3.57c-0.39-0.07-0.78-0.13-1.16-0.18c-11.67-1.63-0.02,27.09,5.58,36.35l2.1,4.55L63.13,178.17z"></path>				<path class="st0" d="M53.93,147.92c0.78-3.46,4.29-21.02,4.29-21.02s-6.84-5.27-10.58-4.17c0,0-3.74,10.92-4.62,21.46      C47.23,140.82,49.59,151.13,53.93,147.92z"></path>				<path class="st8" d="M44.25,129.59c0,0,5.72-16.72,9.26-19.79c3.55-3.07,11.65,2.82,10.82,10.37      c-0.83,7.55-4.83,15.64-4.83,15.64S52.52,130.22,44.25,129.59z"></path>			</g>			<path class="st0" d="M62.32,176.27c0,0,1.98,2.97,3.26,4.88c1.28,1.91,2.25,6.69,1.39,9.22c-1.19,1.58-1.35-0.56-1.32-1.23     c0.02-0.67-0.91-3.8-2.17-5.48c1.02,2.9,1.86,5.87,1.29,8.27c-0.51,1.23-1.98,0.78-1.98-0.47c0-1.25-0.2-4.19-2.35-8.14     c0.51,2.24,1.55,6.11,0.94,8.3c-0.55,0.95-1.54,0.79-1.66-1.05c-0.12-1.84-1.76-7.07-1.76-7.07c0.65,4.8,0.22,5.76-0.13,6.39     c-0.35,0.63-1.3,0.11-1.16-1.3c0.14-1.41,0.1-3.42-0.97-5.2c-1.07-1.78-1.58-4.57-1.02-6.84     C55.24,174.31,62.32,176.27,62.32,176.27z"></path>		</g>		<path class="st7" d="M64.4,167.49c0,0-0.34,13.57,15.23,17.52c15.57,3.95,32.76-39.1,35.27-43.31    c3.67,18.78,10.62,28.3,16.42,41.77c8.83-1.39,11.38-3.76,11.38-3.76s-12-39.28-15.02-50.71c-3.02-11.44-14.4-15.29-23.03-6.37    c-8.63,8.91-24.51,29.77-29.65,33.21C67.62,160.76,64.4,167.49,64.4,167.49z"></path>		<path class="st9" d="M74.33,175.6c-2.56-6.66-1.83-14.55,1.86-20.7c-0.44,0.39-0.85,0.71-1.19,0.94    c-7.38,4.93-10.6,11.66-10.6,11.66s-0.34,13.57,15.23,17.52c0.45,0.11,0.89,0.18,1.34,0.22C78.02,182.68,75.69,179.5,74.33,175.6z    "></path>		<path class="st10" d="M142.7,179.7c0,0-12-39.28-15.02-50.71c-1.89-7.14-7.03-11.33-12.74-11.29c-0.4,0.27-0.78,0.63-1.12,1.11    c-2.7,3.72,1.98,10.68,6.23,12.94c4.25,2.27,2.98,10.56,4.36,14.18c1.17,3.05,10.69,28.19,13.65,35.99    C141.53,180.78,142.7,179.7,142.7,179.7z"></path>		<g>			<g>									<radialGradient id="SVGID_1_" cx="263.1656" cy="205.0269" r="9.8582" gradientTransform="matrix(0.9965 -0.083 0.083 0.9965 -201.5205 -87.1227)" gradientUnits="userSpaceOnUse">					<stop offset="0" style="stop-color:#E5BA90"></stop>					<stop offset="0.3556" style="stop-color:#E7B78B"></stop>					<stop offset="0.7932" style="stop-color:#EAAD7C"></stop>					<stop offset="1" style="stop-color:#ECA772"></stop>				</radialGradient>				<path class="st11" d="M69.33,98.97c0,0,3.79-6.58,5.03-14.27c4.23,2.8,11.08,5.46,11.08,5.46s-0.85,6.86,0.15,8.58      c1,1.73,2.53,3.65,0.31,5.36c-2.22,1.71-7.05,3.18-10.32,0.4C72.31,101.73,71.45,99.82,69.33,98.97z"></path>									<linearGradient id="SVGID_2_" gradientUnits="userSpaceOnUse" x1="248.6388" y1="182.2784" x2="324.122" y2="298.7383" gradientTransform="matrix(0.9965 -0.083 0.083 0.9965 -201.5205 -87.1227)">					<stop offset="0" style="stop-color:#E89661"></stop>					<stop offset="0.0674" style="stop-color:#E7935E"></stop>					<stop offset="0.6684" style="stop-color:#E07D47"></stop>				</linearGradient>				<path class="st12" d="M74.25,98.89c3.62-1.71,7.62,1.2,11.25-0.35c-0.84-2-0.05-8.38-0.05-8.38s-6.86-2.65-11.08-5.46      c-1.24,7.69-5.03,14.27-5.03,14.27c0.93,0.37,1.62,0.96,2.38,1.73C72.36,99.83,73.2,99.19,74.25,98.89z"></path>			</g>			<g>				<path class="st13" d="M104.37,20.52c0,0,12.95,5.85,6.53,21.52C110.9,42.04,96.95,24.99,104.37,20.52z"></path>				<g>					<path class="st14" d="M92.71,19.97c11.83,3.28,19.88,14.21,19.5,26.48c-0.07,2.37-0.24,5.01-0.74,7.91       c-2.95,17.21,2.67,12.76-2.79,27.21s-27.18,25.56-46.37,3.86C43.01,63.62,44.06,48.57,57,30.1       C65.68,17.71,80.61,16.61,92.71,19.97z"></path>					<g>						<path class="st15" d="M90.57,66.58c0,0-5.95-4.96-14.88-0.99C75.69,65.59,82.64,58.64,90.57,66.58z"></path>						<path class="st16" d="M98.07,68.05c-0.19,0.06,0.83-10.17,6.71-9.9c5.57,0.26,4.27,9.97,4.27,9.97S103.05,66.49,98.07,68.05z"></path>						<g>							<defs>								<path id="SVGID_3_" d="M98.07,68.05c-0.19,0.06,0.83-10.17,6.71-9.9c5.57,0.26,4.27,9.97,4.27,9.97          S103.05,66.49,98.07,68.05z"></path>							</defs>							<clipPath id="SVGID_4_">								<use xlink:href="#SVGID_3_" style="overflow:visible;"></use>							</clipPath>							<g class="st17">								<g>																			<radialGradient id="SVGID_5_" cx="2597.3445" cy="865.9847" r="3.5624" gradientTransform="matrix(0.7556 -0.655 -0.655 -0.7556 -1290.6454 2418.4744)" gradientUnits="userSpaceOnUse">										<stop offset="0" style="stop-color:#A67D52"></stop>										<stop offset="0.519" style="stop-color:#A47B50"></stop>										<stop offset="0.706" style="stop-color:#9D754A"></stop>										<stop offset="0.8392" style="stop-color:#92693F"></stop>										<stop offset="0.9462" style="stop-color:#81592F"></stop>										<stop offset="1" style="stop-color:#754D24"></stop>									</radialGradient>									<path class="st18" d="M109,61.3c-1.53-1.76-4.19-1.95-5.95-0.42c-1.76,1.53-1.95,4.19-0.42,5.95           c1.53,1.76,4.19,1.95,5.95,0.42C110.34,65.73,110.53,63.07,109,61.3z"></path>									<path class="st19" d="M107.73,61.59c0.11,0.09,0.21,0.2,0.3,0.31c1.17,1.35,1.03,3.41-0.33,4.59           c-1.23,1.06-3.07,1.06-4.28-0.02c-0.11-0.09-0.21-0.2-0.3-0.31c-1.17-1.35-1.03-3.41,0.33-4.59           C104.67,60.5,106.51,60.51,107.73,61.59 M108.61,60.91c-1.56-1.38-3.94-1.43-5.56-0.03c-1.76,1.53-1.95,4.19-0.42,5.95           c0.12,0.14,0.26,0.28,0.39,0.4c1.56,1.38,3.94,1.43,5.56,0.03c1.76-1.53,1.95-4.19,0.42-5.95           C108.88,61.16,108.75,61.03,108.61,60.91L108.61,60.91z"></path>								</g>								<polygon class="st20" points="106.57,63.31 108.99,61.68 107.03,63.85 109.9,64.41 106.98,64.55 108.61,66.98 106.44,65.02           105.88,67.89 105.74,64.97 103.31,66.6 105.27,64.43 102.4,63.87 105.32,63.72 103.69,61.3 105.86,63.26 106.42,60.39                   "></polygon>								<polygon class="st21" points="106.78,63.56 109.62,63.07 106.98,64.23 109.33,65.89 106.65,64.84 107.13,67.68           105.98,65.04 104.32,67.39 105.37,64.71 102.53,65.19 105.17,64.04 102.82,62.37 105.5,63.43 105.02,60.59 106.17,63.22           107.83,60.88         "></polygon>								<path d="M107.1,62.82c-0.66-0.76-1.8-0.84-2.56-0.18c-0.76,0.66-0.84,1.8-0.18,2.56c0.66,0.76,1.8,0.84,2.56,0.18          C107.67,64.73,107.75,63.58,107.1,62.82z"></path>								<path class="st22" d="M105.38,61.36c-0.43-0.5-1.19-0.55-1.69-0.12c-0.5,0.43-0.55,1.19-0.12,1.69          c0.43,0.5,1.19,0.55,1.69,0.12C105.76,62.61,105.82,61.85,105.38,61.36z"></path>								<path class="st16" d="M105,61.69c-0.25-0.29-0.69-0.32-0.98-0.07c-0.29,0.25-0.32,0.69-0.07,0.98          c0.25,0.29,0.69,0.32,0.98,0.07C105.22,62.41,105.25,61.97,105,61.69z"></path>								<path class="st16" d="M107.11,65.83c-0.1-0.12-0.28-0.13-0.39-0.03c-0.12,0.1-0.13,0.28-0.03,0.39          c0.1,0.12,0.28,0.13,0.39,0.03C107.2,66.13,107.21,65.95,107.11,65.83z"></path>								<path class="st22" d="M107.65,65.16c-0.35-0.4-0.95-0.44-1.35-0.1c-0.4,0.35-0.44,0.95-0.1,1.35          c0.35,0.4,0.95,0.44,1.35,0.1C107.95,66.16,108,65.56,107.65,65.16z"></path>							</g>						</g>						<path class="st15" d="M109.05,68.12l0.01-0.38l0-0.4c0-0.26,0-0.53-0.01-0.79c-0.02-0.53-0.05-1.05-0.1-1.57        c-0.11-1.04-0.27-2.08-0.59-3.06c-0.31-0.97-0.78-1.91-1.5-2.56c-0.36-0.32-0.77-0.57-1.22-0.71        c-0.45-0.14-0.94-0.18-1.43-0.15c-0.49,0.03-0.96,0.13-1.4,0.32c-0.44,0.19-0.84,0.46-1.2,0.8c-0.72,0.66-1.27,1.53-1.7,2.46        c-0.42,0.93-0.76,1.91-1,2.92c-0.24,1.01-0.45,2.04-0.55,3.07l-0.43-0.29c0.31-0.13,0.59-0.2,0.89-0.27        c0.29-0.07,0.59-0.12,0.88-0.17c0.59-0.09,1.18-0.13,1.78-0.13c0.59,0,1.18,0.02,1.77,0.09c0.29,0.03,0.58,0.07,0.87,0.11        l0.86,0.16l-0.88-0.05c-0.29,0-0.58-0.02-0.87-0.02c-0.29,0-0.58,0-0.87,0.02c-0.29,0.01-0.58,0.03-0.87,0.06        c-0.57,0.06-1.15,0.13-1.71,0.25c-0.28,0.06-0.56,0.13-0.83,0.21c-0.27,0.08-0.55,0.18-0.77,0.28l-0.45,0.21l0.02-0.5        c0.03-0.55,0.08-1.08,0.15-1.61c0.07-0.53,0.16-1.06,0.28-1.59c0.23-1.05,0.53-2.1,0.98-3.09c0.23-0.5,0.48-0.99,0.79-1.45        c0.31-0.46,0.66-0.91,1.08-1.29c0.42-0.38,0.91-0.71,1.44-0.93c0.53-0.23,1.12-0.35,1.68-0.37c0.57-0.02,1.15,0.04,1.7,0.23        c0.55,0.19,1.06,0.51,1.48,0.91c0.42,0.4,0.73,0.88,0.98,1.38c0.25,0.5,0.43,1.02,0.57,1.55c0.26,1.06,0.37,2.13,0.38,3.2        c0.01,0.53-0.01,1.07-0.05,1.6c-0.02,0.27-0.04,0.53-0.08,0.79l-0.05,0.39l-0.03,0.2l-0.02,0.1l-0.01,0.05L109.05,68.12        L109.05,68.12C109.04,68.13,109.05,68.12,109.05,68.12z"></path>						<path class="st15" d="M111.06,62.64c-0.35,0.04-0.69-0.03-1.01-0.13c-0.32-0.1-0.63-0.25-0.92-0.44        c-0.14-0.09-0.28-0.19-0.41-0.3c-0.13-0.11-0.26-0.22-0.37-0.33c-0.23-0.22-0.43-0.44-0.63-0.65        c-0.39-0.42-0.74-0.78-1.17-1.17c-0.42-0.38-0.9-0.77-1.37-1.27c0.69-0.09,1.34,0.01,1.98,0.25c0.32,0.12,0.62,0.29,0.91,0.49        c0.28,0.2,0.54,0.43,0.76,0.68c0.22,0.24,0.42,0.49,0.6,0.73l0.13,0.18c0.04,0.06,0.08,0.11,0.12,0.17l0.25,0.34        C110.26,61.66,110.62,62.12,111.06,62.64z"></path>						<path class="st15" d="M111.23,59.99c-0.37,0.15-0.77,0.19-1.16,0.2c-0.39,0.01-0.78-0.04-1.16-0.12        c-0.19-0.04-0.38-0.09-0.57-0.15c-0.19-0.06-0.37-0.13-0.54-0.2c-0.34-0.14-0.66-0.29-0.98-0.43        c-0.62-0.29-1.2-0.54-1.85-0.77c-0.65-0.24-1.34-0.45-2.05-0.79c0.73-0.3,1.49-0.4,2.27-0.38c0.39,0.01,0.78,0.07,1.17,0.17        c0.39,0.1,0.76,0.24,1.1,0.4c0.35,0.16,0.67,0.34,0.98,0.52c0.16,0.1,0.3,0.18,0.44,0.27l0.44,0.26        C109.92,59.3,110.54,59.63,111.23,59.99z"></path>						<path class="st23" d="M100.43,53.13c0,0,1.19-0.29,3.52-2.85c2.33-2.56,4.15-4.37,7.2-2.08c0,0-2.44-5.31-6.92,0.26        C100.25,53.42,100.43,53.13,100.43,53.13z"></path>						<path class="st23" d="M89.84,49.4c0,0-0.99,2.34-6.45,2.37c-4.38,0.02-5.7,1.95-5.7,1.95s0.53-2.19,5.62-2.84        C88.4,50.21,89.84,49.4,89.84,49.4z"></path>						<path class="st23" d="M97.78,69.05c0,0,0.2,2.33,2.9,4.12c2.07,1.37-2.41,3.48-2.41,3.48s2.53-1.36,2.54-2.55        C100.81,72.92,98.07,72.76,97.78,69.05z"></path>						<path class="st24" d="M91.76,74.67c-0.34,0.28,4.63-3.4,8.31-1.9C100.07,72.77,96.62,70.73,91.76,74.67z"></path>						<path class="st25" d="M76.89,77.49c0.35-0.38,0.85-0.65,1.4-0.74c0.55-0.1,1.13,0.02,1.63,0.26c0.51,0.24,0.94,0.6,1.32,0.99        c0.36,0.36,0.72,0.72,1.09,1.07c1.47,1.4,3.04,2.68,4.77,3.64c1.73,0.96,3.63,1.59,5.6,1.56c0.98-0.01,1.96-0.17,2.92-0.48        c0.48-0.15,0.95-0.34,1.42-0.55c0.46-0.21,0.92-0.45,1.37-0.7c-0.75,0.71-1.62,1.32-2.58,1.78c-0.96,0.46-2.01,0.76-3.08,0.86        c-1.08,0.11-2.18,0.01-3.23-0.26c-1.05-0.26-2.05-0.68-2.99-1.2c-1.87-1.04-3.48-2.46-4.87-4.03c-0.35-0.39-0.68-0.79-1-1.2        c-0.3-0.38-0.63-0.73-1.03-1c-0.39-0.26-0.84-0.43-1.33-0.44c-0.24-0.01-0.49,0.03-0.73,0.1        C77.35,77.24,77.11,77.35,76.89,77.49z"></path>						<path class="st15" d="M76.3,75.73c0.22-0.28,0.54-0.46,0.88-0.57c0.34-0.11,0.71-0.13,1.07-0.1l0.27,0.04l0.26,0.07l0.13,0.04        l0.12,0.05c0.08,0.03,0.16,0.06,0.24,0.1c0.16,0.08,0.31,0.17,0.46,0.25c0.14,0.1,0.28,0.21,0.41,0.32        c-0.17-0.05-0.33-0.11-0.49-0.17l-0.48-0.16c-0.16-0.03-0.32-0.1-0.48-0.12l-0.24-0.05l-0.24-0.03        c-0.32-0.03-0.65-0.04-0.97,0.02C76.92,75.46,76.61,75.56,76.3,75.73z"></path>						<path class="st25" d="M83.63,82.91c0.55,0.58,1.18,1.05,1.85,1.47c0.66,0.41,1.36,0.75,2.09,1.02        c0.37,0.12,0.73,0.26,1.11,0.35c0.19,0.05,0.37,0.11,0.57,0.15c0.19,0.04,0.38,0.08,0.58,0.12c0.1,0.02,0.19,0.05,0.29,0.06        l0.29,0.04l0.59,0.09c0.39,0.05,0.79,0.08,1.19,0.14c-0.4,0.05-0.8,0.09-1.2,0.11l-0.6-0.01c-0.2,0-0.4-0.01-0.6-0.04        c-0.81-0.07-1.6-0.27-2.37-0.53c-0.38-0.16-0.76-0.31-1.11-0.51c-0.09-0.05-0.18-0.1-0.27-0.15l-0.26-0.16l-0.26-0.17        c-0.08-0.06-0.16-0.12-0.24-0.18C84.61,84.21,84.02,83.62,83.63,82.91z"></path>						<path class="st15" d="M98.21,65.96c0.01-0.69,0.09-1.37,0.21-2.05c0.12-0.68,0.3-1.35,0.53-2.03        c0.24-0.67,0.55-1.33,0.97-1.96c0.42-0.63,0.97-1.22,1.68-1.68c0.35-0.23,0.74-0.44,1.14-0.59c0.36-0.14,0.74-0.27,1.15-0.35        c0.8-0.17,1.73-0.11,2.55,0.26c0.83,0.37,1.51,1.01,1.91,1.73c0.4,0.73,0.57,1.52,0.43,2.31l-0.26,0.07        c-0.56-0.48-1.07-0.86-1.57-1.12c-0.49-0.26-0.95-0.4-1.38-0.46c-0.22-0.04-0.44-0.05-0.67-0.07        c-0.23-0.02-0.47-0.04-0.73-0.05c-0.26-0.02-0.53,0-0.82,0.01c-0.24,0.02-0.47,0.06-0.71,0.15c-0.46,0.19-0.91,0.51-1.33,0.92        c-0.42,0.41-0.8,0.89-1.15,1.42c-0.35,0.53-0.66,1.1-0.94,1.69c-0.14,0.29-0.28,0.6-0.4,0.9c-0.13,0.3-0.25,0.62-0.36,0.93        L98.21,65.96z"></path>						<path class="st26" d="M94.84,75.26c0,0,0-0.02,0.01-0.05c0.01-0.03,0.01-0.08,0.03-0.13c0.04-0.11,0.12-0.26,0.27-0.41        c0.08-0.07,0.17-0.14,0.29-0.2c0.11-0.05,0.24-0.1,0.39-0.11c0.28-0.04,0.62,0.04,0.87,0.27c0,0-0.02,0-0.05,0        c-0.03,0-0.08,0-0.14,0.01c-0.12,0.01-0.28,0.03-0.46,0.08c-0.18,0.05-0.38,0.11-0.58,0.21        C95.25,75.02,95.05,75.13,94.84,75.26z"></path>						<path class="st26" d="M97.9,75.93c0,0,0-0.01,0-0.04c0-0.02,0-0.06,0.01-0.11c0.02-0.09,0.07-0.23,0.18-0.36        c0.05-0.07,0.13-0.13,0.21-0.19c0.09-0.05,0.19-0.1,0.3-0.13c0.22-0.06,0.51-0.03,0.73,0.13c0,0-0.01,0-0.04,0.01        c-0.03,0-0.07,0.01-0.11,0.02c-0.1,0.02-0.23,0.05-0.37,0.11c-0.14,0.06-0.3,0.13-0.45,0.23        C98.21,75.7,98.06,75.81,97.9,75.93z"></path>					</g>					<g>						<defs>							<path id="SVGID_6_" d="M92.57,19.6c11.93,3.3,20.05,14.24,19.69,26.52c-0.07,2.37-0.24,5.01-0.74,7.91         c-2.95,17.21,1.63,13.94-3.85,28.39c-5.48,14.45-26.27,24.36-45.64,2.62c-19.47-21.85-18.44-36.9-5.43-55.36         C65.33,17.31,80.38,16.22,92.57,19.6z"></path>						</defs>						<clipPath id="SVGID_7_">							<use xlink:href="#SVGID_6_" style="overflow:visible;"></use>						</clipPath>						<path class="st27" d="M68.95,5.04c0,0-5.58,19.97-2.97,30.67c2.61,10.69,2.28,18.89,1.18,23.79s1.43,35.79,29.8,36.69        s-26.09,1.59-26.09,1.59S37.1,62.12,36.65,59.28c-0.45-2.84,5.95-32.15,5.95-32.15S58.34,0.05,68.95,5.04z"></path>					</g>				</g>				<g>					<g>						<path class="st28" d="M39.66,104.92c-0.58-0.32-1.07-0.72-1.48-1.16c-0.41-0.44-0.74-0.93-1-1.43        c-0.26-0.5-0.43-1.02-0.54-1.54c-0.22-1.04-0.18-2.08-0.01-3.06c0.17-0.99,0.49-1.92,0.88-2.82c0.39-0.89,0.86-1.73,1.39-2.52        c0.53-0.8,1.11-1.55,1.72-2.29c0.84-1.01,1.74-2,2.66-2.98c9.72-8.78,13.62-11.36,12.65-18.99c-0.09-0.71-0.16-1.66-0.22-2.79        c0.04-0.12,0.09-0.25,0.13-0.37c0.06-0.18,0.13-0.36,0.19-0.55c0.05-0.18,0.11-0.36,0.16-0.55c0.05-0.18,0.11-0.36,0.15-0.54        c0.04-0.18,0.09-0.36,0.13-0.53c0.33-1.41,0.51-2.75,0.58-3.99c0.12-2.49-0.14-4.58-0.53-6.22c-0.1-0.41-0.19-0.79-0.3-1.15        c-0.11-0.36-0.21-0.68-0.32-0.98c-0.11-0.3-0.21-0.57-0.32-0.82c-0.04-0.08-0.07-0.16-0.1-0.23        c0.04-13.13,0.41-27.83,0.41-27.83s-17.55,1.17-22.21,17.99c-4.66,16.81,7.34,26.77,5.49,35.1s-17.17,27.15-6.95,38.8        c0,0-4.09-5.53,1.14-14.84c0.03,0.15,0.05,0.29,0.08,0.44c0.29,1.38,0.84,2.63,1.56,3.61c0.73,1.01,1.6,1.68,2.41,2.14        c0.82,0.45,1.6,0.69,2.24,0.78c0.64,0.1,1.15,0.07,1.48,0.04c0.33-0.05,0.5-0.08,0.5-0.08        C40.9,105.47,40.24,105.23,39.66,104.92z"></path>						<path class="st29" d="M50.42,28.33c0,0-0.09,0.05-0.26,0.14c-0.17,0.1-0.44,0.23-0.76,0.43c-0.67,0.38-1.64,0.98-2.79,1.87        c-0.58,0.44-1.2,0.97-1.85,1.58c-0.65,0.61-1.32,1.3-1.99,2.09c-1.35,1.58-2.7,3.54-3.82,5.91c-0.28,0.59-0.54,1.21-0.79,1.85        c-0.24,0.64-0.47,1.3-0.66,1.99c-0.21,0.69-0.37,1.4-0.52,2.13c-0.14,0.73-0.26,1.48-0.33,2.25c-0.16,1.53-0.13,3.14,0,4.8        c0.15,1.66,0.42,3.36,0.78,5.11c0.35,1.75,0.77,3.54,1.18,5.39c0.41,1.85,0.81,3.76,1.06,5.74c0.13,0.99,0.23,1.99,0.27,3.01        c0.05,1.02,0.05,2.04-0.03,3.08l-0.03,0.39l-0.04,0.39c-0.03,0.26-0.05,0.52-0.1,0.77c-0.04,0.26-0.08,0.51-0.12,0.77        c-0.05,0.26-0.11,0.51-0.16,0.77c-0.24,1.02-0.56,2.03-0.98,3c0,0,0.04-0.12,0.11-0.35c0.07-0.23,0.2-0.57,0.3-1.03        c0.24-0.9,0.51-2.25,0.59-3.97c0.03-0.43,0.02-0.88,0.03-1.36c-0.02-0.47-0.02-0.97-0.06-1.48c-0.07-1.03-0.19-2.13-0.38-3.3        c-0.19-1.17-0.44-2.4-0.74-3.69c-0.3-1.29-0.64-2.63-1-4.03c-0.71-2.8-1.47-5.83-1.79-9.11c-0.07-0.82-0.12-1.65-0.12-2.49        c-0.01-0.84,0.04-1.69,0.12-2.55c0.18-1.7,0.55-3.41,1.11-5.07c1.11-3.32,2.95-6.45,5.33-9.05        C44.35,31.69,47.28,29.61,50.42,28.33z"></path>						<path class="st29" d="M49.48,39.78c0,0-0.17,0.27-0.5,0.8c-0.16,0.27-0.34,0.6-0.55,1c-0.2,0.41-0.44,0.87-0.66,1.41        c-0.46,1.08-0.92,2.44-1.29,4.06c-0.09,0.41-0.18,0.83-0.26,1.26c-0.08,0.44-0.16,0.89-0.22,1.36        c-0.14,0.94-0.25,1.93-0.33,2.99c-0.18,2.1-0.22,4.44-0.28,6.97c-0.07,2.53-0.15,5.27-0.58,8.16        c-0.22,1.44-0.53,2.92-0.98,4.39c-0.45,1.47-1.05,2.93-1.79,4.36c-1.47,2.85-3.54,5.53-6.11,7.75c0,0,0.07-0.07,0.2-0.22        c0.13-0.15,0.34-0.35,0.58-0.63c0.5-0.56,1.21-1.4,2.01-2.53c0.4-0.56,0.81-1.2,1.24-1.91c0.42-0.71,0.84-1.49,1.25-2.35        c0.4-0.85,0.79-1.78,1.13-2.76c0.35-0.99,0.65-2.04,0.89-3.15c0.5-2.22,0.76-4.66,0.89-7.22c0.14-2.57,0.17-5.26,0.34-8.02        c0.17-2.75,0.52-5.58,1.28-8.3c0.38-1.36,0.87-2.68,1.49-3.94C47.85,42,48.6,40.82,49.48,39.78z"></path>						<path class="st29" d="M51.97,57.69c0,0,0.01,0.07,0.03,0.2c0.02,0.13,0.05,0.33,0.08,0.59c0.06,0.52,0.13,1.3,0.12,2.3        c0,0.5-0.03,1.07-0.09,1.68c-0.06,0.62-0.15,1.28-0.29,2c-0.14,0.71-0.33,1.47-0.58,2.27c-0.25,0.79-0.58,1.61-0.96,2.46        c-0.39,0.84-0.85,1.7-1.37,2.58c-0.52,0.87-1.11,1.75-1.74,2.64c-1.26,1.79-2.74,3.59-4.27,5.52        c-1.52,1.92-3.08,3.98-4.43,6.31c-0.67,1.17-1.28,2.4-1.76,3.72c-0.49,1.32-0.85,2.72-1.01,4.19c0,0,0.01-0.35,0.04-1.01        c0.06-0.65,0.15-1.62,0.45-2.8c0.29-1.18,0.77-2.57,1.49-4.07c0.09-0.19,0.18-0.38,0.28-0.57c0.1-0.19,0.2-0.38,0.3-0.58        c0.2-0.39,0.43-0.78,0.66-1.18c0.47-0.79,0.99-1.61,1.55-2.43c1.13-1.65,2.45-3.33,3.8-5.08c1.35-1.75,2.73-3.58,3.95-5.54        c0.61-0.98,1.18-2,1.66-3.06c0.49-1.06,0.9-2.15,1.22-3.28C51.74,62.33,52.03,59.98,51.97,57.69z"></path>					</g>					<path class="st23" d="M99.67,17.46c0,0-10.06-12.54-26.62-10.03S40.17,28.69,42.54,45.16c2.37,16.48,13.71,31.27,13.71,31.27       S58,41.08,73.36,36.69S99.67,17.46,99.67,17.46z"></path>					<g class="st30">						<path class="st31" d="M61.37,15.32c0,0,0.82-0.32,2.34-0.83c1.53-0.51,3.75-1.23,6.61-1.88c1.43-0.32,3.02-0.61,4.76-0.81        c0.87-0.09,1.78-0.17,2.72-0.2c0.94-0.04,1.91-0.03,2.91,0.03c1.99,0.12,4.09,0.44,6.19,1.08c0.26,0.08,0.53,0.16,0.79,0.25        c0.26,0.09,0.52,0.19,0.78,0.28c0.52,0.21,1.04,0.42,1.55,0.68c1.02,0.49,2.02,1.08,2.96,1.76c0,0-0.25-0.13-0.71-0.36        c-0.46-0.23-1.14-0.54-2.02-0.89c-0.88-0.33-1.97-0.68-3.22-0.98c-1.25-0.3-2.68-0.53-4.23-0.67        c-3.1-0.29-6.68-0.1-10.36,0.44C68.77,13.76,64.99,14.61,61.37,15.32z"></path>						<path class="st31" d="M58.2,21.83c0,0,0.17-0.02,0.49-0.05c0.32-0.03,0.8-0.08,1.43-0.11c1.24-0.07,3.06-0.1,5.32,0.09        c1.13,0.09,2.37,0.25,3.7,0.48c1.33,0.25,2.74,0.55,4.22,0.98c2.95,0.84,6.13,2.12,9.26,3.92c0,0-0.2-0.07-0.58-0.21        c-0.38-0.13-0.92-0.34-1.62-0.57c-1.39-0.48-3.37-1.11-5.71-1.73c-2.34-0.62-5.05-1.23-7.88-1.69        C63.99,22.44,61.03,22.1,58.2,21.83z"></path>						<path class="st31" d="M53.36,29.51c0,0,0.12,0.05,0.36,0.16c0.23,0.11,0.57,0.27,1.02,0.48c0.88,0.42,2.16,1.01,3.76,1.71        c0.8,0.36,1.68,0.73,2.63,1.13c0.96,0.38,1.98,0.81,3.09,1.22c2.2,0.84,4.68,1.68,7.41,2.51c0,0-0.17-0.02-0.48-0.04        c-0.31-0.03-0.77-0.07-1.35-0.15c-1.15-0.15-2.78-0.43-4.64-0.95c-1.86-0.52-3.95-1.27-6.01-2.3        C57.08,32.25,55.08,30.95,53.36,29.51z"></path>						<path class="st31" d="M48.66,33.31c0,0-0.04,0.19-0.12,0.55c-0.02,0.09-0.04,0.19-0.07,0.3c-0.02,0.11-0.04,0.23-0.07,0.36        c-0.05,0.26-0.11,0.57-0.16,0.91c-0.22,1.37-0.44,3.37-0.34,5.86c0.05,1.24,0.18,2.6,0.4,4.05c0.12,0.73,0.26,1.48,0.43,2.24        c0.17,0.77,0.38,1.56,0.61,2.37c0.92,3.23,2.36,6.72,4.19,10.35c0,0-0.14-0.2-0.4-0.57c-0.26-0.37-0.62-0.92-1.06-1.63        c-0.87-1.41-2.05-3.47-3.07-6.05c-0.51-1.29-0.98-2.71-1.34-4.23c-0.36-1.52-0.6-3.13-0.69-4.79c-0.08-1.65,0-3.35,0.28-5        C47.53,36.39,48.01,34.79,48.66,33.31z"></path>						<path class="st31" d="M57.85,26.51c0,0,0.41-0.05,1.15-0.07c0.74-0.02,1.83,0,3.17,0.14c1.34,0.15,2.93,0.43,4.67,0.96        c1.74,0.52,3.62,1.29,5.51,2.36c0,0-0.5-0.12-1.35-0.32c-0.85-0.2-2.05-0.49-3.45-0.81c-1.4-0.32-3.01-0.68-4.67-1.06        C61.21,27.34,59.49,26.95,57.85,26.51z"></path>						<path class="st31" d="M51.57,29.04c0,0,0.02,0.12,0.07,0.35c0.02,0.11,0.04,0.25,0.07,0.42c0.03,0.17,0.05,0.36,0.1,0.57        c0.15,0.86,0.41,2.09,0.82,3.59c0.2,0.75,0.46,1.56,0.76,2.42c0.32,0.86,0.65,1.78,1.08,2.73c0.84,1.91,1.95,3.96,3.42,6.08        c0,0-0.11-0.1-0.32-0.3c-0.21-0.19-0.52-0.47-0.87-0.86c-0.72-0.76-1.69-1.91-2.58-3.41c-0.89-1.5-1.72-3.36-2.19-5.39        C51.43,33.23,51.31,31.05,51.57,29.04z"></path>						<path class="st31" d="M60.06,18.97c0,0,0.71-0.18,2.03-0.44c1.31-0.25,3.23-0.61,5.66-0.82c1.22-0.11,2.56-0.17,4.02-0.14        c1.46,0.03,3.03,0.16,4.66,0.47c1.63,0.31,3.34,0.79,5.01,1.52c1.68,0.73,3.31,1.74,4.76,3.02c0,0-0.2-0.12-0.56-0.34        c-0.37-0.22-0.91-0.52-1.61-0.87c-0.71-0.34-1.57-0.71-2.59-1.06c-1.01-0.35-2.17-0.67-3.43-0.93        c-2.53-0.53-5.49-0.76-8.58-0.74C66.34,18.64,63.13,18.87,60.06,18.97z"></path>					</g>				</g>				<path class="st14" d="M55.09,56.15c0,0-4.9-3.08-7.35,2.55c-2.45,5.64,1.07,9.46,4.65,12.07      C52.39,70.77,53.32,59.05,55.09,56.15z"></path>				<path class="st32" d="M99.89,15.78c0,0,10.59-0.36,10.27,8.87c-0.32,9.23-14.17,16.74-31.41,23.75S59.71,77.36,56.38,86.96      s-8.05,10.89-8.05,10.89s6.26-2.23,5-17.17S51.3,44.31,65.56,31.63S90.48,17.29,99.89,15.78z"></path>				<path class="st15" d="M49.48,61.78c-0.06-0.34,0.01-0.7,0.15-1.01c0.14-0.32,0.36-0.61,0.62-0.84l0.2-0.17l0.22-0.14l0.11-0.07      l0.12-0.06c0.08-0.04,0.15-0.08,0.23-0.11c0.16-0.07,0.32-0.12,0.48-0.17c0.17-0.03,0.33-0.07,0.5-0.09      c-0.15,0.09-0.29,0.17-0.44,0.24l-0.42,0.25c-0.13,0.1-0.28,0.17-0.4,0.27l-0.19,0.14l-0.18,0.16      c-0.23,0.21-0.45,0.45-0.62,0.71C49.7,61.15,49.56,61.45,49.48,61.78z"></path>				<g>					<path class="st23" d="M103.58,22.74c0,0-0.36,0.16-1.04,0.46c-0.34,0.15-0.77,0.33-1.27,0.56c-0.5,0.22-1.08,0.48-1.73,0.78       c-1.3,0.59-2.88,1.34-4.7,2.26c-1.82,0.92-3.87,2.01-6.09,3.33c-2.22,1.32-4.6,2.85-7.06,4.66c-0.31,0.22-0.61,0.46-0.92,0.7       c-0.31,0.24-0.63,0.47-0.93,0.72c-0.61,0.5-1.25,0.99-1.87,1.53c-1.25,1.05-2.49,2.19-3.73,3.41       c-2.46,2.44-4.87,5.22-7.04,8.39c-0.13,0.2-0.27,0.4-0.41,0.6c-0.14,0.2-0.27,0.4-0.4,0.61c-0.26,0.41-0.52,0.82-0.78,1.24       c-0.25,0.42-0.5,0.85-0.75,1.28l-0.19,0.32l-0.18,0.33c-0.12,0.22-0.24,0.44-0.35,0.66c-0.94,1.77-1.79,3.63-2.52,5.59       c0,0,0.15-0.48,0.43-1.36c0.29-0.88,0.75-2.16,1.42-3.73c0.7-1.56,1.61-3.42,2.83-5.42c1.22-2.01,2.74-4.16,4.57-6.33       c3.63-4.36,8.61-8.67,14.33-12.2c2.86-1.76,5.89-3.37,8.99-4.75C97.29,24.94,100.46,23.76,103.58,22.74z"></path>					<path class="st23" d="M106.02,25.23c0,0-0.31,0.27-0.9,0.78c-0.58,0.53-1.5,1.24-2.71,2.12c-1.24,0.85-2.79,1.86-4.69,2.89       c-1.89,1.04-4.1,2.14-6.56,3.3c-2.46,1.17-5.18,2.42-8.02,3.94c-0.35,0.2-0.7,0.39-1.06,0.59c-0.35,0.2-0.72,0.39-1.07,0.61       c-0.35,0.22-0.71,0.43-1.07,0.65c-0.18,0.11-0.36,0.22-0.54,0.33c-0.18,0.12-0.35,0.24-0.53,0.36       c-0.35,0.24-0.71,0.48-1.07,0.72c-0.36,0.25-0.69,0.52-1.05,0.79c-0.18,0.13-0.35,0.27-0.53,0.4l-0.27,0.2l-0.25,0.22       c-0.34,0.29-0.69,0.58-1.03,0.88c-2.71,2.42-5.19,5.39-7.43,8.75c-2.25,3.35-4.27,7.08-6.22,10.99c0,0,0.2-0.48,0.58-1.38       c0.2-0.45,0.44-0.99,0.72-1.63c0.29-0.64,0.62-1.37,1.01-2.18c0.77-1.62,1.75-3.55,3.02-5.66c0.16-0.26,0.32-0.53,0.48-0.8       c0.17-0.27,0.34-0.54,0.52-0.81c0.35-0.55,0.73-1.1,1.12-1.67c0.19-0.29,0.4-0.56,0.61-0.84c0.21-0.28,0.42-0.57,0.64-0.85       c0.45-0.56,0.9-1.14,1.4-1.7c0.97-1.14,2.06-2.25,3.25-3.32c0.3-0.26,0.6-0.53,0.91-0.8c0.32-0.25,0.64-0.5,0.97-0.75       c0.16-0.13,0.32-0.25,0.49-0.38c0.16-0.13,0.33-0.26,0.5-0.37c0.34-0.23,0.69-0.47,1.03-0.71c0.17-0.12,0.35-0.24,0.52-0.36       c0.17-0.12,0.36-0.22,0.54-0.33c0.36-0.22,0.72-0.44,1.09-0.66c0.36-0.23,0.74-0.43,1.11-0.64c0.38-0.21,0.75-0.42,1.13-0.63       c0.77-0.39,1.54-0.8,2.33-1.18c0.79-0.37,1.58-0.76,2.38-1.12c1.6-0.74,3.22-1.44,4.85-2.16c0.81-0.36,1.62-0.72,2.43-1.08       l1.2-0.56c0.4-0.19,0.81-0.37,1.2-0.57C100.23,29.07,103.3,27.34,106.02,25.23z"></path>					<path class="st23" d="M96.86,18.23c0,0-0.39,0.18-1.15,0.54c-0.38,0.17-0.85,0.39-1.4,0.65c-0.28,0.13-0.57,0.27-0.89,0.42       c-0.32,0.15-0.66,0.32-1.02,0.49c-1.44,0.69-3.19,1.55-5.19,2.63c-2,1.08-4.25,2.38-6.62,4c-0.6,0.39-1.18,0.84-1.79,1.28       c-0.31,0.22-0.6,0.46-0.9,0.7c-0.3,0.24-0.61,0.48-0.91,0.73c-0.3,0.26-0.6,0.52-0.9,0.78c-0.15,0.13-0.3,0.26-0.46,0.39       c-0.15,0.14-0.29,0.28-0.44,0.42c-0.3,0.28-0.6,0.56-0.9,0.85c-0.29,0.3-0.58,0.6-0.87,0.91c-0.15,0.15-0.29,0.31-0.44,0.46       c-0.14,0.16-0.28,0.32-0.42,0.49c-0.28,0.33-0.57,0.65-0.85,0.98c-0.27,0.35-0.54,0.69-0.81,1.05       c-0.14,0.18-0.27,0.35-0.41,0.53c-0.13,0.18-0.26,0.37-0.39,0.56c-0.26,0.37-0.52,0.75-0.78,1.13       c-0.25,0.39-0.49,0.79-0.73,1.18c-0.12,0.2-0.25,0.4-0.37,0.6c-0.12,0.2-0.23,0.41-0.35,0.62c-0.23,0.42-0.46,0.84-0.69,1.26       c-0.21,0.43-0.43,0.87-0.65,1.31c-0.11,0.22-0.22,0.44-0.32,0.66c-0.1,0.23-0.2,0.45-0.3,0.68c-0.2,0.46-0.41,0.91-0.6,1.37       c-0.19,0.47-0.38,0.94-0.57,1.41c-0.1,0.24-0.19,0.48-0.27,0.72c-0.09,0.24-0.18,0.48-0.27,0.73       c-0.18,0.49-0.36,0.97-0.52,1.47c-0.17,0.5-0.33,1-0.5,1.5c-0.16,0.51-0.31,1.02-0.47,1.53c-1.24,4.11-2.26,8.48-3.32,13       c0,0,0.09-0.55,0.26-1.56c0.17-1.02,0.43-2.5,0.78-4.36c0.36-1.86,0.81-4.11,1.44-6.64c0.64-2.53,1.45-5.34,2.61-8.29       c1.16-2.94,2.69-6.01,4.73-8.94c0.13-0.18,0.25-0.37,0.38-0.55c0.14-0.18,0.27-0.35,0.41-0.53c0.28-0.36,0.55-0.71,0.83-1.07       c0.29-0.35,0.6-0.69,0.9-1.04c0.15-0.17,0.3-0.35,0.45-0.52c0.16-0.16,0.32-0.33,0.48-0.49c1.27-1.35,2.69-2.57,4.16-3.74       c2.97-2.32,6.29-4.27,9.69-5.93c1.7-0.84,3.43-1.59,5.16-2.31C93.4,19.52,95.14,18.86,96.86,18.23z"></path>					<path class="st23" d="M63.06,38.57c0,0-0.15,0.3-0.43,0.89c-0.28,0.58-0.68,1.45-1.17,2.58c-0.95,2.27-2.2,5.64-3.09,9.99       c-0.22,1.09-0.42,2.24-0.58,3.44c-0.09,0.6-0.15,1.22-0.22,1.85c-0.05,0.63-0.12,1.27-0.15,1.93c-0.16,2.63-0.12,5.47-0.1,8.5       c0.01,3.02,0.01,6.25-0.45,9.58c-0.22,1.66-0.57,3.35-1.08,5.02c-0.25,0.83-0.56,1.66-0.91,2.47c-0.35,0.81-0.76,1.6-1.21,2.37       c0,0,0.04-0.1,0.13-0.28c0.08-0.19,0.22-0.46,0.37-0.83c0.31-0.73,0.72-1.81,1.08-3.22c0.18-0.7,0.36-1.49,0.51-2.34       c0.15-0.86,0.28-1.78,0.37-2.78c0.19-1.98,0.25-4.22,0.22-6.64c-0.03-2.42-0.14-5.02-0.14-7.76c0-1.37,0.03-2.77,0.13-4.19       c0.1-1.42,0.25-2.86,0.5-4.3c0.24-1.44,0.55-2.88,0.94-4.3c0.38-1.42,0.85-2.83,1.37-4.21C60.19,43.59,61.54,40.97,63.06,38.57       z"></path>					<path class="st23" d="M97.75,34.79c0,0-0.28,0.19-0.81,0.55c-0.27,0.18-0.6,0.41-1,0.65c-0.4,0.25-0.87,0.53-1.4,0.85       c-0.54,0.31-1.13,0.65-1.79,1.02c-0.66,0.36-1.39,0.75-2.18,1.16c-1.57,0.82-3.39,1.71-5.39,2.71c-2,1.01-4.19,2.12-6.45,3.48       c-0.57,0.33-1.13,0.7-1.7,1.07c-0.14,0.09-0.29,0.18-0.43,0.28c-0.14,0.1-0.28,0.2-0.42,0.3c-0.28,0.2-0.57,0.4-0.85,0.6       c-0.29,0.2-0.56,0.43-0.85,0.64c-0.28,0.22-0.56,0.44-0.85,0.66c-0.27,0.24-0.55,0.48-0.82,0.72       c-0.28,0.24-0.56,0.48-0.82,0.74c-1.08,1.02-2.12,2.15-3.12,3.38c-0.99,1.22-1.95,2.54-2.87,3.92       c-1.84,2.77-3.55,5.8-5.33,8.93c0,0,0.18-0.39,0.52-1.12c0.34-0.72,0.83-1.78,1.49-3.1c0.65-1.32,1.46-2.91,2.48-4.66       c1.02-1.75,2.27-3.66,3.82-5.58c0.78-0.95,1.65-1.9,2.6-2.82c0.49-0.44,0.98-0.9,1.5-1.33c0.26-0.21,0.53-0.42,0.8-0.64       c0.27-0.21,0.53-0.44,0.82-0.63c2.23-1.64,4.72-3.07,7.32-4.37c2.6-1.3,5.3-2.46,7.97-3.65       C92.64,37.36,95.27,36.15,97.75,34.79z"></path>					<path class="st23" d="M69.59,30.13c0,0-0.14,0.19-0.4,0.56c-0.13,0.18-0.29,0.41-0.49,0.68c-0.19,0.27-0.42,0.57-0.65,0.94       c-0.24,0.36-0.5,0.76-0.79,1.19c-0.15,0.21-0.29,0.45-0.44,0.69c-0.15,0.24-0.3,0.49-0.46,0.76c-0.16,0.26-0.33,0.52-0.49,0.81       c-0.16,0.29-0.32,0.58-0.49,0.88c-0.17,0.3-0.35,0.61-0.52,0.94c-0.17,0.33-0.34,0.66-0.51,1.01       c-0.09,0.17-0.18,0.35-0.27,0.52c-0.09,0.18-0.18,0.35-0.26,0.54c-0.17,0.37-0.34,0.74-0.52,1.13       c-0.09,0.19-0.18,0.39-0.27,0.58c-0.08,0.2-0.17,0.4-0.25,0.61c-0.17,0.41-0.34,0.82-0.52,1.24c-0.65,1.71-1.34,3.56-1.87,5.57       c-0.56,2.01-1.06,4.16-1.39,6.44c-0.35,2.28-0.57,4.69-0.62,7.21c0,0-0.02-0.3-0.07-0.86c-0.02-0.28-0.05-0.62-0.08-1.02       c-0.01-0.1-0.02-0.2-0.02-0.31c0-0.11,0-0.22-0.01-0.33c0-0.23-0.01-0.47-0.02-0.73c-0.05-2.06,0.06-4.99,0.7-8.36       c0.64-3.36,1.78-7.16,3.63-10.79c0.11-0.23,0.23-0.45,0.34-0.68c0.11-0.23,0.23-0.46,0.36-0.68c0.26-0.44,0.51-0.89,0.77-1.34       c0.06-0.11,0.13-0.22,0.19-0.33l0.21-0.32l0.42-0.65c0.28-0.43,0.56-0.87,0.87-1.28c0.31-0.41,0.61-0.83,0.91-1.24       c0.31-0.4,0.65-0.79,0.97-1.18c0.16-0.19,0.33-0.39,0.49-0.58c0.17-0.19,0.34-0.37,0.52-0.55       C68.91,30.85,69.25,30.49,69.59,30.13z"></path>					<path class="st23" d="M54.71,55.08c0,0-0.05,0.2-0.13,0.6c-0.02,0.1-0.05,0.21-0.07,0.33c-0.02,0.12-0.05,0.25-0.08,0.4       c-0.06,0.29-0.12,0.62-0.18,0.99c-0.25,1.5-0.49,3.68-0.49,6.41c0,1.36,0.05,2.86,0.16,4.48c0.1,1.62,0.26,3.36,0.43,5.21       c0.16,1.85,0.34,3.81,0.43,5.87c0.1,2.05,0.1,4.21-0.08,6.41c0,0-0.02-0.26-0.05-0.75c-0.03-0.49-0.09-1.2-0.17-2.1       c-0.09-0.9-0.21-1.97-0.36-3.2c-0.15-1.22-0.34-2.59-0.54-4.08c-0.2-1.48-0.4-3.08-0.56-4.75c-0.16-1.67-0.26-3.43-0.25-5.23       c0.02-1.79,0.14-3.63,0.45-5.42C53.51,58.45,54.02,56.69,54.71,55.08z"></path>				</g>				<path class="st33" d="M105.62,23.14c0,0-0.12,0.1-0.35,0.29c-0.23,0.18-0.57,0.46-1.02,0.8c-0.9,0.68-2.23,1.62-3.98,2.68      c-1.75,1.06-3.91,2.22-6.43,3.32c-2.53,1.1-5.43,2.12-8.6,2.9c0,0,0.71-0.33,1.92-0.88c1.21-0.55,2.91-1.35,4.89-2.3      c1.98-0.95,4.23-2.06,6.55-3.24C100.92,25.52,103.32,24.28,105.62,23.14z"></path>				<path class="st33" d="M106.07,28.64c0,0-0.38,0.31-1.11,0.82c-0.73,0.51-1.81,1.22-3.23,1.99c-1.42,0.77-3.17,1.6-5.21,2.35      c-2.04,0.75-4.38,1.4-6.94,1.83c0,0,2.27-0.97,5.45-2.33c1.59-0.69,3.41-1.47,5.29-2.28C102.22,30.22,104.17,29.38,106.07,28.64      z"></path>				<path class="st33" d="M104.75,31.96c0,0-0.1,0.11-0.3,0.31c-0.2,0.2-0.49,0.51-0.89,0.87c-0.8,0.74-2.02,1.76-3.66,2.86      c-0.82,0.56-1.75,1.12-2.77,1.7c-1.03,0.57-2.15,1.14-3.36,1.69c-2.42,1.11-5.2,2.12-8.23,3.02c0,0,0.67-0.35,1.81-0.94      c1.15-0.58,2.77-1.4,4.66-2.35c1.89-0.96,4.05-2.06,6.24-3.28C100.45,34.64,102.67,33.3,104.75,31.96z"></path>				<path class="st33" d="M101.04,20.13c0,0-0.29,0.05-0.85,0.14c-0.14,0.02-0.29,0.05-0.47,0.07c-0.17,0.03-0.36,0.07-0.56,0.11      c-0.4,0.08-0.87,0.16-1.39,0.3c-0.26,0.06-0.54,0.12-0.82,0.2c-0.29,0.08-0.59,0.16-0.9,0.25c-0.32,0.08-0.64,0.19-0.98,0.29      c-0.34,0.11-0.69,0.21-1.05,0.35c-1.44,0.5-3.05,1.15-4.77,2.02c-1.72,0.87-3.55,1.94-5.41,3.26c-0.24,0.16-0.46,0.34-0.7,0.51      c-0.23,0.17-0.47,0.34-0.7,0.53c-0.46,0.37-0.94,0.73-1.41,1.13c-0.95,0.78-1.88,1.63-2.82,2.53      c-3.75,3.61-7.34,8.23-10.57,13.6c0,0,0.16-0.34,0.47-0.96c0.31-0.62,0.77-1.53,1.4-2.65c1.26-2.23,3.18-5.34,5.98-8.57      c0.69-0.81,1.45-1.61,2.25-2.43c0.82-0.8,1.67-1.6,2.59-2.37c1.83-1.55,3.89-2.98,6.11-4.21c0.28-0.16,0.56-0.3,0.84-0.45      c0.28-0.15,0.57-0.3,0.86-0.43c0.29-0.14,0.58-0.27,0.87-0.41l0.89-0.38l0.44-0.19l0.45-0.17c0.3-0.11,0.6-0.23,0.91-0.34      c0.61-0.2,1.22-0.41,1.84-0.58C96.01,20.56,98.56,20.19,101.04,20.13z"></path>				<path class="st33" d="M82.2,22.9c0,0-0.15,0.12-0.43,0.35c-0.14,0.11-0.32,0.25-0.53,0.42c-0.21,0.16-0.46,0.35-0.72,0.58      c-0.27,0.22-0.57,0.46-0.9,0.73c-0.33,0.26-0.68,0.57-1.06,0.89c-0.19,0.16-0.39,0.32-0.59,0.5c-0.2,0.18-0.4,0.36-0.61,0.54      c-0.21,0.19-0.43,0.37-0.65,0.57c-0.22,0.2-0.44,0.41-0.67,0.62c-0.93,0.84-1.91,1.81-2.96,2.86c-1.03,1.07-2.13,2.22-3.23,3.5      c-2.23,2.54-4.52,5.53-6.74,8.95c0,0,0.1-0.22,0.3-0.63c0.19-0.41,0.47-1.01,0.87-1.74c0.77-1.47,1.96-3.52,3.61-5.74      c1.65-2.22,3.74-4.62,6.22-6.79C76.53,26.32,79.35,24.38,82.2,22.9z"></path>			</g>		</g>	</g>	<g>		<radialGradient id="SVGID_8_" cx="203.8314" cy="59.2604" r="37.8481" gradientUnits="userSpaceOnUse">			<stop offset="1.614320e-03" style="stop-color:#C2FFFF"></stop>			<stop offset="0.244" style="stop-color:#9FE7EE"></stop>			<stop offset="0.5798" style="stop-color:#75CAD9"></stop>			<stop offset="0.8433" style="stop-color:#5BB8CC"></stop>			<stop offset="1" style="stop-color:#51B1C7"></stop>		</radialGradient>		<path class="st34" d="M198.93,65.16c0,5.1-1.12,9.23-2.5,9.23c-1.38,0-2.5-4.13-2.5-9.23s1.12-9.23,2.5-9.23    C197.81,55.93,198.93,60.07,198.93,65.16z"></path>		<path class="st35" d="M108.64,65.39c-0.17-0.82,1.16-1.17,2-1.26c0.75-0.08,2.85-0.37,3.11,0.35c0.13,0.36-0.69,0.97-1.05,1.08    c-0.58,0.18-1.8-0.36-2.4-0.41C109.59,65.08,108.64,65.39,108.64,65.39z"></path>		<linearGradient id="SVGID_9_" gradientUnits="userSpaceOnUse" x1="121.1762" y1="69.0065" x2="128.6933" y2="69.0065">			<stop offset="0" style="stop-color:#E89661"></stop>			<stop offset="0.0674" style="stop-color:#E7935E"></stop>			<stop offset="0.6684" style="stop-color:#E07D47"></stop>		</linearGradient>		<path class="st36" d="M121.18,68.35c0.09,1.22,1.59,2.62,5.06,2.62c3.47,0,2.25-3.94,2.25-3.94L121.18,68.35z"></path>		<polygon class="st37" points="186.87,71.89 112.65,66.84 112.65,63.12 186.87,58.06   "></polygon>		<polygon class="st38" points="112.65,65.45 112.65,66.84 186.87,71.89 186.87,65.45 135.98,61.49 132.47,61.77 131.7,65.45   "></polygon>		<path class="st37" d="M165.78,69.99c0,0.93-0.76,1.67-1.69,1.64l-29.24-0.76c-0.93-0.02-1.69-0.8-1.69-1.73v-8.33    c0-0.93,0.76-1.71,1.69-1.73l29.24-0.76c0.93-0.02,1.69,0.72,1.69,1.64V69.99z"></path>		<g class="st39">			<path class="st37" d="M133.17,69.14c0,0.93,0.76,1.71,1.69,1.74l25.87,0.75c0.93,0.03,1.74-0.71,1.81-1.63l0.71-9.98     c0.07-0.93-0.64-1.66-1.57-1.63l-1.52,0.05c-0.93,0.03-1.78,0.8-1.89,1.72l-0.44,3.61c-0.11,0.92-0.96,1.67-1.89,1.67h-21.08     c-0.93,0-1.69,0.76-1.69,1.69V69.14z"></path>		</g>		<path class="st37" d="M195.58,70.85c0,1.24-1.01,2.25-2.25,2.25h-31.49c-1.24,0-2.25-1.01-2.25-2.25V59.1    c0-1.24,1.01-2.25,2.25-2.25h31.49c1.24,0,2.25,1.01,2.25,2.25V70.85z"></path>		<g class="st39">			<path class="st37" d="M159.6,71.41c0,0.93,0.76,1.69,1.69,1.69h32.61c0.93,0,1.69-0.76,1.69-1.69v-12.9     c0-0.93-0.76-1.69-1.69-1.69h-1.13c-0.93,0-1.83,0.74-2.01,1.66l-1.04,5.31c-0.18,0.91-1.08,1.66-2.01,1.66h-26.43     c-0.93,0-1.69,0.76-1.69,1.69V71.41z"></path>		</g>		<rect x="191.93" y="55.17" class="st40" width="5.06" height="19.62"></rect>		<rect x="133.22" y="58.19" class="st40" width="3.94" height="13.6"></rect>		<path class="st37" d="M113.16,66.99l-2.81,0.56c0,0-0.56-0.89-0.56-2.67c0-1.78,0.56-2.45,0.56-2.45l2.81,0.56V66.99z"></path>		<rect x="159.58" y="56.48" class="st40" width="5.06" height="17.02"></rect>		<rect x="159.58" y="65.01" class="st41" width="5.06" height="8.49"></rect>		<rect x="133.29" y="65.01" class="st41" width="3.82" height="6.71"></rect>		<g>			<path class="st0" d="M123.33,64.41c-0.97,0-1.81-0.71-1.95-1.7L121.01,60c-0.15-1.08,0.6-2.07,1.68-2.22     c1.07-0.15,2.07,0.6,2.22,1.68l0.37,2.72c0.15,1.08-0.6,2.07-1.68,2.22C123.51,64.41,123.42,64.41,123.33,64.41z"></path>		</g>		<g>			<path class="st0" d="M122.96,70.22c-0.51,0-1.02-0.23-1.35-0.67c-0.56-0.75-0.41-1.8,0.34-2.36l1.87-1.41     c0.74-0.56,1.8-0.41,2.36,0.34c0.56,0.75,0.41,1.8-0.34,2.36l-1.87,1.41C123.67,70.11,123.31,70.22,122.96,70.22z"></path>		</g>		<g>			<path class="st0" d="M126.24,64.7c-0.88,0-1.62-0.68-1.68-1.56l-0.19-2.53c-0.07-0.93,0.63-1.74,1.56-1.81     c0.93-0.07,1.74,0.63,1.81,1.56l0.19,2.53c0.07,0.93-0.63,1.74-1.56,1.81C126.32,64.69,126.28,64.7,126.24,64.7z"></path>		</g>		<g>			<path class="st0" d="M128.39,64.51c-0.08,0-0.17-0.01-0.25-0.02c-0.92-0.14-1.56-0.99-1.42-1.92l0.38-2.53     c0.14-0.92,0.99-1.56,1.92-1.42c0.92,0.14,1.56,0.99,1.42,1.92l-0.38,2.53C129.94,63.91,129.22,64.51,128.39,64.51z"></path>		</g>		<g>			<path class="st0" d="M130.08,64.51c-0.32,0-0.65-0.09-0.93-0.28c-0.78-0.52-0.98-1.56-0.47-2.34l0.94-1.41     c0.52-0.78,1.56-0.98,2.34-0.47c0.78,0.52,0.98,1.56,0.47,2.34l-0.94,1.41C131.16,64.24,130.62,64.51,130.08,64.51z"></path>		</g>		<rect x="191.93" y="64.7" class="st41" width="5.06" height="10.09"></rect>	</g>	<path class="st8" d="M87.46,100.49c-2.18-1.73,20.01-3.64,20.01-3.64l-1.82,14.56l-12.92,6.14   C92.74,117.54,93.73,105.48,87.46,100.49z"></path></g></svg>